ply
format ascii 1.0
element vertex 1314
property float x
property float y
property float z
property uchar red
property uchar green
property uchar blue
end_header
0.009625944308936596 -0.20206139981746674 0.940000057220459 174 174 176
0.012725314125418663 -0.20206139981746674 0.940000057220459 174 173 175
0.015824684873223305 -0.20206139981746674 0.940000057220459 167 163 166
0.01898445002734661 -0.2027062624692917 0.9430000185966492 156 150 154
0.028402308002114296 -0.20335115492343903 0.9460000395774841 155 151 154
0.03152146190404892 -0.20335115492343903 0.9460000395774841 156 152 155
0.009625944308936596 -0.20051154494285583 0.940000057220459 173 172 172
0.012725314125418663 -0.20051154494285583 0.940000057220459 168 162 164
0.015824684873223305 -0.20051154494285583 0.940000057220459 162 156 160
0.018964318558573723 -0.2009381502866745 0.9420000314712524 156 150 154
0.02522970177233219 -0.20136478543281555 0.9440000653266907 153 149 152
0.02834226004779339 -0.20136478543281555 0.9440000653266907 154 150 153
0.03152146190404892 -0.2017914056777954 0.9460000395774841 154 150 153
0.004987477324903011 -0.19938500225543976 0.9420000314712524 169 165 166
0.008093442767858505 -0.19938500225543976 0.9420000314712524 169 165 166
0.011175628751516342 -0.19896169006824493 0.940000057220459 170 164 166
0.014274999499320984 -0.19896169006824493 0.940000057220459 169 163 165
0.017374370247125626 -0.19896169006824493 0.940000057220459 157 151 155
0.023673422634601593 -0.19980832934379578 0.9440000653266907 154 150 153
0.02678598091006279 -0.19980832934379578 0.9440000653266907 154 150 153
0.029961885884404182 -0.2002316415309906 0.9460000395774841 152 151 153
0.0018815125804394484 -0.19783185422420502 0.9420000314712524 165 160 158
0.004987477324903011 -0.19783185422420502 0.9420000314712524 170 165 163
0.008093442767858505 -0.19783185422420502 0.9420000314712524 165 161 162
0.011175628751516342 -0.19741182029247284 0.940000057220459 182 176 178
0.014274999499320984 -0.19741182029247284 0.940000057220459 196 192 193
0.017374370247125626 -0.19741182029247284 0.940000057220459 161 157 158
0.020517300814390182 -0.19783185422420502 0.9420000314712524 156 152 153
0.023648343980312347 -0.1980418562889099 0.9430000185966492 155 151 154
0.026757605373859406 -0.1980418562889099 0.9430000185966492 153 152 154
0.029898541048169136 -0.198251873254776 0.9440000653266907 154 153 155
0.03620019182562828 -0.19867189228534698 0.9460000395774841 154 153 155
0.039319343864917755 -0.19867189228534698 0.9460000395774841 153 152 154
0.042483359575271606 -0.19888190925121307 0.9470000267028809 152 151 153
0.04560580849647522 -0.19888190925121307 0.9470000267028809 153 152 154
0.04872826114296913 -0.19888190925121307 0.9470000267028809 156 152 153
0.05179595947265625 -0.19867189228534698 0.9460000395774841 155 149 151
0.05491511523723602 -0.19867189228534698 0.9460000395774841 156 150 152
0.003434494836255908 -0.19627870619297028 0.9420000314712524 172 164 161
0.006540459580719471 -0.19627870619297028 0.9420000314712524 168 163 161
0.009625944308936596 -0.19586198031902313 0.940000057220459 191 186 184
0.012725314125418663 -0.19586198031902313 0.940000057220459 170 167 164
0.015824684873223305 -0.19586198031902313 0.940000057220459 169 166 163
0.018964318558573723 -0.19627870619297028 0.9420000314712524 157 153 156
0.022070283070206642 -0.19627870619297028 0.9420000314712524 156 152 153
0.025202974677085876 -0.19648705422878265 0.9430000185966492 155 151 154
0.028312237933278084 -0.19648705422878265 0.9430000185966492 154 153 155
0.03142149746417999 -0.19648705422878265 0.9430000185966492 158 157 159
0.03453075885772705 -0.19648705422878265 0.9430000185966492 153 152 154
0.03767994046211243 -0.19669543206691742 0.9440000653266907 154 153 155
0.040792498737573624 -0.19669543206691742 0.9440000653266907 153 152 154
0.043998077511787415 -0.19711215794086456 0.9460000395774841 152 151 153
0.04711722955107689 -0.19711215794086456 0.9460000395774841 153 152 154
0.05013017728924751 -0.19669543206691742 0.9440000653266907 156 152 155
0.0531863309442997 -0.19648705422878265 0.9430000185966492 155 151 152
0.056235894560813904 -0.19627870619297028 0.9420000314712524 155 151 152
0.05921587347984314 -0.19586198031902313 0.940000057220459 149 145 146
-0.001221852726303041 -0.19431212544441223 0.940000057220459 161 156 154
0.001877517905086279 -0.19431212544441223 0.940000057220459 172 164 161
0.004987477324903011 -0.19472554326057434 0.9420000314712524 170 165 161
0.008093442767858505 -0.19472554326057434 0.9420000314712524 170 165 163
0.011175628751516342 -0.19431212544441223 0.940000057220459 191 188 185
0.014274999499320984 -0.19431212544441223 0.940000057220459 175 171 174
0.017374370247125626 -0.19431212544441223 0.940000057220459 156 155 159
0.020517300814390182 -0.19472554326057434 0.9420000314712524 151 150 152
0.02362326718866825 -0.19472554326057434 0.9420000314712524 151 150 152
0.02672922983765602 -0.19472554326057434 0.9420000314712524 153 152 154
0.029866866767406464 -0.1949322670698166 0.9430000185966492 158 157 159
0.03297612816095352 -0.1949322670698166 0.9430000185966492 155 154 156
0.03612365946173668 -0.19513897597789764 0.9440000653266907 152 151 153
0.039236221462488174 -0.19513897597789764 0.9440000653266907 154 153 153
0.04243849962949753 -0.19555240869522095 0.9460000395774841 152 151 151
0.045557651668787 -0.19555240869522095 0.9460000395774841 152 151 151
0.048573896288871765 -0.19513897597789764 0.9440000653266907 153 152 154
0.05168645828962326 -0.19513897597789764 0.9440000653266907 155 151 154
0.054740965366363525 -0.1949322670698166 0.9430000185966492 154 150 151
0.05766618996858597 -0.19431212544441223 0.940000057220459 153 149 150
0.06076555326581001 -0.19431212544441223 0.940000057220459 151 145 147
-0.005870908498764038 -0.19276225566864014 0.940000057220459 159 159 159
-0.0027715377509593964 -0.19276225566864014 0.940000057220459 158 155 152
0.0003274838381912559 -0.1925572007894516 0.9390000700950623 166 161 159
0.003427203046157956 -0.19276225566864014 0.940000057220459 173 168 164
0.006526573561131954 -0.19276225566864014 0.940000057220459 175 167 164
0.009625944308936596 -0.19276225566864014 0.940000057220459 171 166 162
0.012725314125418663 -0.19276225566864014 0.940000057220459 155 151 152
0.015807850286364555 -0.1925572007894516 0.9390000700950623 143 142 146
0.018964318558573723 -0.1931723952293396 0.9420000314712524 142 141 148
0.022070283070206642 -0.1931723952293396 0.9420000314712524 150 149 151
0.02512279711663723 -0.19276225566864014 0.940000057220459 153 152 152
0.02828221395611763 -0.1931723952293396 0.9420000314712524 158 157 157
0.03138817846775055 -0.1931723952293396 0.9420000314712524 159 158 158
0.03449414297938347 -0.1931723952293396 0.9420000314712524 161 160 162
0.03764002025127411 -0.19337746500968933 0.9430000185966492 156 155 157
0.040792498737573624 -0.19358251988887787 0.9440000653266907 159 158 158
0.04390505701303482 -0.19358251988887787 0.9440000653266907 151 150 150
0.04711722955107689 -0.19399265944957733 0.9460000395774841 152 151 151
0.05013017728924751 -0.19358251988887787 0.9440000653266907 152 151 151
0.05312993377447128 -0.1931723952293396 0.9420000314712524 153 152 152
0.0561164990067482 -0.19276225566864014 0.940000057220459 153 152 152
0.05915287509560585 -0.1925572007894516 0.9390000700950623 153 149 150
0.062050070613622665 -0.1919419914484024 0.9360000491142273 152 148 149
0.06513624638319016 -0.1919419914484024 0.9360000491142273 155 149 151
-0.004321223124861717 -0.19121241569519043 0.940000057220459 161 156 154
-0.001221852726303041 -0.19121241569519043 0.940000057220459 164 159 155
0.0018755205674096942 -0.19100899994373322 0.9390000700950623 173 165 162
0.004976888187229633 -0.19121241569519043 0.940000057220459 172 164 161
0.008076258935034275 -0.19121241569519043 0.940000057220459 158 150 149
0.011175628751516342 -0.19121241569519043 0.940000057220459 152 148 149
0.014259813353419304 -0.19100899994373322 0.9390000700950623 140 138 145
0.017355887219309807 -0.19100899994373322 0.9390000700950623 136 135 142
0.020517300814390182 -0.19161923229694366 0.9420000314712524 160 160 164
0.02357311174273491 -0.19121241569519043 0.940000057220459 160 159 159
0.0266724806278944 -0.19121241569519043 0.940000057220459 159 158 158
0.02983519621193409 -0.19161923229694366 0.9420000314712524 160 159 159
0.03294116258621216 -0.19161923229694366 0.9420000314712524 162 161 161
0.03608539327979088 -0.19182266294956207 0.9430000185966492 159 158 158
0.039194654673337936 -0.19182266294956207 0.9430000185966492 156 155 155
0.042303916066884995 -0.19182266294956207 0.9430000185966492 152 151 151
0.04546133801341057 -0.1920260787010193 0.9440000653266907 152 151 153
0.04852243885397911 -0.19182266294956207 0.9430000185966492 153 152 154
0.05163170397281647 -0.19182266294956207 0.9430000185966492 155 154 156
0.05468291789293289 -0.19161923229694366 0.9420000314712524 158 157 157
0.057420797646045685 -0.19039873778820038 0.9360000491142273 158 154 155
0.06050698086619377 -0.19039873778820038 0.9360000491142273 152 148 149
0.06359315663576126 -0.19039873778820038 0.9360000491142273 154 148 152
0.06646562367677689 -0.18978849053382874 0.9330000281333923 152 148 151
-0.005870908498764038 -0.18966256082057953 0.940000057220459 161 156 152
-0.0027685894165188074 -0.18946078419685364 0.9390000700950623 168 160 157
0.0003274838381912559 -0.18946078419685364 0.9390000700950623 168 160 157
0.003423557383939624 -0.18946078419685364 0.9390000700950623 170 162 159
0.006519630551338196 -0.18946078419685364 0.9390000700950623 160 152 149
0.009625944308936596 -0.18966256082057953 0.940000057220459 156 148 145
0.012725314125418663 -0.18966256082057953 0.940000057220459 147 142 140
0.015807850286364555 -0.18946078419685364 0.9390000700950623 137 136 140
0.018924055621027946 -0.18966256082057953 0.940000057220459 132 131 138
0.022070283070206642 -0.19006608426570892 0.9420000314712524 139 138 145
0.025096070021390915 -0.18946078419685364 0.9390000700950623 130 133 134
0.028192143887281418 -0.18946078419685364 0.9390000700950623 158 157 159
0.031321536749601364 -0.18966256082057953 0.940000057220459 170 166 167
0.034420907497406006 -0.18966256082057953 0.940000057220459 169 166 163
0.03760010749101639 -0.19006608426570892 0.9420000314712524 166 161 159
0.04074928164482117 -0.19026786088943481 0.9430000185966492 146 145 145
0.043858546763658524 -0.19026786088943481 0.9430000185966492 147 146 148
0.05007706955075264 -0.19026786088943481 0.9430000185966492 156 155 159
0.05312993377447128 -0.19006608426570892 0.9420000314712524 172 168 171
0.056056804955005646 -0.18946078419685364 0.9390000700950623 168 162 166
0.05896388739347458 -0.18885546922683716 0.9360000491142273 162 156 158
0.062050070613622665 -0.18885546922683716 0.9360000491142273 153 147 151
0.06492748111486435 -0.18825016915798187 0.9330000281333923 155 149 153
0.06800376623868942 -0.18825016915798187 0.9330000281333923 153 149 152
-0.0027685894165188074 -0.18791258335113525 0.9390000700950623 171 163 160
0.0003274838381912559 -0.18791258335113525 0.9390000700950623 168 160 157
0.003423557383939624 -0.18791258335113525 0.9390000700950623 166 158 155
0.006505743600428104 -0.1875123381614685 0.937000036239624 160 152 149
0.009595222771167755 -0.1875123381614685 0.937000036239624 157 149 146
0.012711777351796627 -0.18791258335113525 0.9390000700950623 153 148 144
0.015807850286364555 -0.18791258335113525 0.9390000700950623 143 139 142
0.018924055621027946 -0.18811269104480743 0.940000057220459 138 137 141
0.02199999801814556 -0.18791258335113525 0.9390000700950623 137 137 141
0.025096070021390915 -0.18791258335113525 0.9390000700950623 150 150 154
0.028192143887281418 -0.18791258335113525 0.9390000700950623 156 155 157
0.03128821775317192 -0.18791258335113525 0.9390000700950623 170 164 166
0.034420907497406006 -0.18811269104480743 0.940000057220459 169 164 162
0.03760010749101639 -0.188512921333313 0.9420000314712524 169 164 162
0.04070607200264931 -0.188512921333313 0.9420000314712524 144 143 143
0.043858546763658524 -0.18871304392814636 0.9430000185966492 146 145 147
0.04696780815720558 -0.18871304392814636 0.9430000185966492 150 149 153
0.05007706955075264 -0.18871304392814636 0.9430000185966492 165 160 168
0.052960727363824844 -0.18791258335113525 0.9390000700950623 185 174 180
0.05593740567564964 -0.1875123381614685 0.937000036239624 183 172 176
0.05896388739347458 -0.18731221556663513 0.9360000491142273 166 157 162
0.062050070613622665 -0.18731221556663513 0.9360000491142273 159 153 157
0.06492748111486435 -0.186711847782135 0.9330000281333923 155 149 153
0.06800376623868942 -0.186711847782135 0.9330000281333923 162 158 161
-0.005864662583917379 -0.18636436760425568 0.9390000700950623 163 155 152
-0.0027685894165188074 -0.18636436760425568 0.9390000700950623 169 159 157
0.0003274838381912559 -0.18636436760425568 0.9390000700950623 179 169 167
0.003423557383939624 -0.18636436760425568 0.9390000700950623 166 156 154
0.006505743600428104 -0.18596743047237396 0.937000036239624 162 152 150
0.009595222771167755 -0.18596743047237396 0.937000036239624 160 152 149
0.012711777351796627 -0.18636436760425568 0.9390000700950623 159 154 150
0.015807850286364555 -0.18636436760425568 0.9390000700950623 148 142 146
0.018924055621027946 -0.18656285107135773 0.940000057220459 144 138 142
0.02199999801814556 -0.18636436760425568 0.9390000700950623 140 134 140
0.025096070021390915 -0.18636436760425568 0.9390000700950623 172 163 168
0.028192143887281418 -0.18636436760425568 0.9390000700950623 157 153 154
0.03128821775317192 -0.18636436760425568 0.9390000700950623 158 152 154
0.034420907497406006 -0.18656285107135773 0.940000057220459 170 162 161
0.03760010749101639 -0.18695978820323944 0.9420000314712524 171 163 162
0.04070607200264931 -0.18695978820323944 0.9420000314712524 148 144 145
0.043858546763658524 -0.1871582418680191 0.9430000185966492 155 154 158
0.04696780815720558 -0.1871582418680191 0.9430000185966492 170 166 171
0.05013017728924751 -0.18735672533512115 0.9440000653266907 220 216 219
0.052960727363824844 -0.18636436760425568 0.9390000700950623 248 242 244
0.05593740567564964 -0.18596743047237396 0.937000036239624 234 228 230
0.05896388739347458 -0.1857689619064331 0.9360000491142273 219 215 216
0.06191748380661011 -0.1853720098733902 0.9340000152587891 165 164 168
0.06492748111486435 -0.18517354130744934 0.9330000281333923 155 149 153
0.06793088465929031 -0.18497507274150848 0.9320000410079956 194 188 192
-0.007412699516862631 -0.1848161667585373 0.9390000700950623 165 155 153
-0.004307432100176811 -0.18442252278327942 0.937000036239624 165 155 153
-0.0012205528328195214 -0.1848161667585373 0.9390000700950623 172 162 160
0.001871525775641203 -0.18442252278327942 0.937000036239624 167 159 158
0.004961004480719566 -0.18442252278327942 0.937000036239624 165 155 155
0.008050483651459217 -0.18442252278327942 0.937000036239624 171 163 162
0.011128073558211327 -0.18422569334506989 0.9360000491142273 165 157 156
0.014214254915714264 -0.18422569334506989 0.9360000491142273 150 140 140
0.0173004362732172 -0.18422569334506989 0.9360000491142273 147 134 140
0.020408399403095245 -0.18442252278327942 0.937000036239624 153 137 144
0.023472798988223076 -0.18422569334506989 0.9360000491142273 159 142 144
0.026558982208371162 -0.18422569334506989 0.9360000491142273 161 152 155
0.029676834121346474 -0.18442252278327942 0.937000036239624 161 150 154
0.03283625468611717 -0.1848161667585373 0.9390000700950623 158 146 146
0.035970594733953476 -0.18501299619674683 0.940000057220459 166 156 156
0.03906996175646782 -0.18501299619674683 0.940000057220459 171 163 162
0.042259056121110916 -0.1854066252708435 0.9420000314712524 156 155 157
0.04541317746043205 -0.18560343980789185 0.9430000185966492 240 239 241
0.04852243885397911 -0.18560343980789185 0.9430000185966492 253 253 255
0.051467444747686386 -0.18501299619674683 0.940000057220459 251 251 255
0.05456681549549103 -0.18501299619674683 0.940000057220459 252 252 252
0.057420797646045685 -0.18422569334506989 0.9360000491142273 255 254 254
0.060377687215805054 -0.18383203446865082 0.9340000152587891 229 228 232
0.06338933110237122 -0.18363521993160248 0.9330000281333923 185 181 184
0.06646562367677689 -0.18363521993160248 0.9330000281333923 162 156 160
0.06946738064289093 -0.18343840539455414 0.9320000410079956 157 151 157
-0.008960735984146595 -0.1832679659128189 0.9390000700950623 163 155 152
-0.005864662583917379 -0.1832679659128189 0.9390000700950623 169 160 155
-0.002762692514806986 -0.18287760019302368 0.937000036239624 181 172 167
0.0003267863066866994 -0.18287760019302368 0.937000036239624 191 183 180
0.003423557383939624 -0.1832679659128189 0.9390000700950623 161 153 152
0.006505743600428104 -0.18287760019302368 0.937000036239624 164 154 154
0.009584982879459858 -0.18268243968486786 0.9360000491142273 165 155 155
0.012671164236962795 -0.18268243968486786 0.9360000491142273 156 145 149
0.015757344663143158 -0.18268243968486786 0.9360000491142273 181 169 169
0.018843527883291245 -0.18268243968486786 0.9360000491142273 229 221 220
0.02195313759148121 -0.18287760019302368 0.937000036239624 252 243 246
0.02501589059829712 -0.18268243968486786 0.9360000491142273 252 240 238
0.028102071955800056 -0.18268243968486786 0.9360000491142273 149 141 140
0.031221574172377586 -0.18287760019302368 0.937000036239624 154 139 140
0.034384291619062424 -0.1832679659128189 0.9390000700950623 162 146 143
0.03752027824521065 -0.18346312642097473 0.940000057220459 169 157 157
0.04061964899301529 -0.18346312642097473 0.940000057220459 180 172 171
0.04381203651428223 -0.18385347723960876 0.9420000314712524 241 240 240
0.046918001025915146 -0.18385347723960876 0.9420000314712524 215 217 223
0.05007706955075264 -0.1840486377477646 0.9430000185966492 176 174 183
0.052960727363824844 -0.1832679659128189 0.9390000700950623 175 174 183
0.05593740567564964 -0.18287760019302368 0.937000036239624 222 221 223
0.05896388739347458 -0.18268243968486786 0.9360000491142273 186 185 187
0.06191748380661011 -0.18229207396507263 0.9340000152587891 172 170 177
0.06492748111486435 -0.1820969134569168 0.9330000281333923 179 178 180
0.06793088465929031 -0.1819017380475998 0.9320000410079956 168 164 165
-0.007412699516862631 -0.18171975016593933 0.9390000700950623 159 150 145
-0.004307432100176811 -0.18133270740509033 0.937000036239624 184 173 168
-0.0012179530458524823 -0.18133270740509033 0.937000036239624 180 172 171
0.001871525775641203 -0.18133270740509033 0.937000036239624 212 207 205
0.004961004480719566 -0.18133270740509033 0.937000036239624 227 219 218
0.008050483651459217 -0.18133270740509033 0.937000036239624 194 183 187
0.011128073558211327 -0.18113917112350464 0.9360000491142273 176 165 171
0.014214254915714264 -0.18113917112350464 0.9360000491142273 251 242 245
0.0173004362732172 -0.18113917112350464 0.9360000491142273 247 241 243
0.020408399403095245 -0.18133270740509033 0.937000036239624 242 233 240
0.023472798988223076 -0.18113917112350464 0.9360000491142273 179 163 168
0.026558982208371162 -0.18113917112350464 0.9360000491142273 183 171 171
0.0296451635658741 -0.18113917112350464 0.9360000491142273 136 116 119
0.03283625468611717 -0.18171975016593933 0.9390000700950623 143 117 117
0.035970594733953476 -0.18191327154636383 0.940000057220459 147 130 130
0.03906996175646782 -0.18191327154636383 0.940000057220459 187 179 178
0.042259056121110916 -0.18230031430721283 0.9420000314712524 190 189 191
0.045365020632743835 -0.18230031430721283 0.9420000314712524 165 164 171
0.04852243885397911 -0.18249383568763733 0.9430000185966492 168 167 178
0.051576949656009674 -0.18230031430721283 0.9420000314712524 170 168 177
0.054508764296770096 -0.18171975016593933 0.9390000700950623 193 189 194
0.057420797646045685 -0.18113917112350464 0.9360000491142273 198 194 197
0.060377687215805054 -0.18075212836265564 0.9340000152587891 177 176 180
0.06338933110237122 -0.18055860698223114 0.9330000281333923 212 211 211
0.06646562367677689 -0.18055860698223114 0.9330000281333923 164 155 160
0.06946738064289093 -0.18036507070064545 0.9320000410079956 148 139 144
-0.008960735984146595 -0.18017154932022095 0.9390000700950623 159 150 145
-0.005864662583917379 -0.18017154932022095 0.9390000700950623 162 151 144
-0.002762692514806986 -0.1797877848148346 0.937000036239624 155 141 135
0.0003267863066866994 -0.1797877848148346 0.937000036239624 181 171 171
0.003416264895349741 -0.1797877848148346 0.937000036239624 214 210 215
0.006498800590634346 -0.1795959174633026 0.9360000491142273 212 206 212
0.009584982879459858 -0.1795959174633026 0.9360000491142273 178 169 176
0.012671164236962795 -0.1795959174633026 0.9360000491142273 200 189 195
0.015757344663143158 -0.1795959174633026 0.9360000491142273 164 151 157
0.018843527883291245 -0.1795959174633026 0.9360000491142273 158 142 151
0.021929709240794182 -0.1795959174633026 0.9360000491142273 154 136 146
0.02501589059829712 -0.1795959174633026 0.9360000491142273 177 159 165
0.028102071955800056 -0.1795959174633026 0.9360000491142273 151 136 137
0.031221574172377586 -0.1797877848148346 0.937000036239624 134 111 110
0.034384291619062424 -0.18017154932022095 0.9390000700950623 140 114 112
0.03752027824521065 -0.18036341667175293 0.940000057220459 162 145 145
0.04061964899301529 -0.18036341667175293 0.940000057220459 174 166 165
0.04371901974081993 -0.18036341667175293 0.940000057220459 165 164 164
0.046918001025915146 -0.1807471662759781 0.9420000314712524 169 168 175
0.05007706955075264 -0.18093903362751007 0.9430000185966492 169 168 177
0.052960727363824844 -0.18017154932022095 0.9390000700950623 170 168 175
0.05593740567564964 -0.1797877848148346 0.937000036239624 225 221 222
0.0588378943502903 -0.17921216785907745 0.9340000152587891 196 192 193
0.06191748380661011 -0.17921216785907745 0.9340000152587891 193 192 192
0.06492748111486435 -0.17902028560638428 0.9330000281333923 162 158 159
0.06800376623868942 -0.17902028560638428 0.9330000281333923 152 143 148
-0.007412699516862631 -0.17862334847450256 0.9390000700950623 158 147 140
-0.004316626116633415 -0.17862334847450256 0.9390000700950623 151 130 127
-0.0012179530458524823 -0.17824287712574005 0.937000036239624 141 126 125
0.001871525775641203 -0.17824287712574005 0.937000036239624 172 166 170
0.004955709911882877 -0.17805266380310059 0.9360000491142273 163 159 164
0.008041891269385815 -0.17805266380310059 0.9360000491142273 184 178 184
0.011128073558211327 -0.17805266380310059 0.9360000491142273 184 175 180
0.014214254915714264 -0.17805266380310059 0.9360000491142273 152 134 144
0.0173004362732172 -0.17805266380310059 0.9360000491142273 165 144 155
0.020386619493365288 -0.17805266380310059 0.9360000491142273 166 145 152
0.023472798988223076 -0.17805266380310059 0.9360000491142273 157 140 142
0.026558982208371162 -0.17805266380310059 0.9360000491142273 171 155 152
0.0296451635658741 -0.17805266380310059 0.9360000491142273 154 133 130
0.03283625468611717 -0.17862334847450256 0.9390000700950623 152 131 126
0.03593232482671738 -0.17862334847450256 0.9390000700950623 165 150 149
0.03902839869260788 -0.17862334847450256 0.9390000700950623 165 157 156
0.04216933622956276 -0.17881356179714203 0.940000057220459 162 161 161
0.045365020632743835 -0.17919400334358215 0.9420000314712524 169 169 173
0.048470985144376755 -0.17919400334358215 0.9420000314712524 172 172 176
0.051467444747686386 -0.17881356179714203 0.940000057220459 165 163 170
0.05439266562461853 -0.17824287712574005 0.937000036239624 253 252 252
0.057298097759485245 -0.17767219245433807 0.9340000152587891 240 239 239
0.060313042253255844 -0.17748196423053741 0.9330000281333923 195 194 194
0.06338933110237122 -0.17748196423053741 0.9330000281333923 183 179 180
0.06646562367677689 -0.17748196423053741 0.9330000281333923 160 151 156
0.06954191625118256 -0.17748196423053741 0.9330000281333923 152 143 148
-0.00897027924656868 -0.17726370692253113 0.940000057220459 159 148 141
-0.005864662583917379 -0.17707513272762299 0.9390000700950623 146 127 121
-0.002762692514806986 -0.1766979694366455 0.937000036239624 143 117 113
0.00032643755548633635 -0.17650939524173737 0.9360000491142273 160 141 139
0.003416264895349741 -0.1766979694366455 0.937000036239624 167 156 160
0.006498800590634346 -0.17650939524173737 0.9360000491142273 184 178 182
0.009584982879459858 -0.17650939524173737 0.9360000491142273 199 195 200
0.012671164236962795 -0.17650939524173737 0.9360000491142273 156 147 152
0.015757344663143158 -0.17650939524173737 0.9360000491142273 163 147 154
0.018843527883291245 -0.17650939524173737 0.9360000491142273 165 147 155
0.021929709240794182 -0.17650939524173737 0.9360000491142273 166 148 154
0.02496243827044964 -0.1761322319507599 0.9340000152587891 165 148 148
0.028102071955800056 -0.17650939524173737 0.9360000491142273 168 147 144
0.031188255175948143 -0.17650939524173737 0.9360000491142273 160 137 134
0.034384291619062424 -0.17707513272762299 0.9390000700950623 158 137 132
0.03748036548495293 -0.17707513272762299 0.9390000700950623 162 147 146
0.04061964899301529 -0.17726370692253113 0.940000057220459 135 125 125
0.04371901974081993 -0.17726370692253113 0.940000057220459 165 161 166
0.046918001025915146 -0.1776408702135086 0.9420000314712524 169 169 171
0.050023965537548065 -0.1776408702135086 0.9420000314712524 172 172 174
0.05284792557358742 -0.1766979694366455 0.937000036239624 207 206 208
0.05587771162390709 -0.17650939524173737 0.9360000491142273 212 211 213
0.0588378943502903 -0.1761322319507599 0.9340000152587891 184 183 185
0.06185119226574898 -0.17594365775585175 0.9330000281333923 176 175 175
0.06492748111486435 -0.17594365775585175 0.9330000281333923 161 157 158
0.06800376623868942 -0.17594365775585175 0.9330000281333923 154 148 152
-0.007412699516862631 -0.1755269318819046 0.9390000700950623 162 141 136
-0.004307432100176811 -0.17515306174755096 0.937000036239624 143 118 111
-0.0012166532687842846 -0.17496614158153534 0.9360000491142273 141 115 111
0.0018695284379646182 -0.17496614158153534 0.9360000491142273 156 136 139
0.004945120308548212 -0.1745922714471817 0.9340000152587891 164 151 155
0.008024707436561584 -0.1745922714471817 0.9340000152587891 168 159 164
0.011104295030236244 -0.1745922714471817 0.9340000152587891 222 213 216
0.014168696478009224 -0.17440533638000488 0.9330000281333923 186 177 182
0.017244987189769745 -0.17440533638000488 0.9330000281333923 167 156 160
0.020343057811260223 -0.1745922714471817 0.9340000152587891 168 156 156
0.02339756488800049 -0.17440533638000488 0.9330000281333923 186 170 167
0.02647385559976101 -0.17440533638000488 0.9330000281333923 117 89 88
0.02955014817416668 -0.17440533638000488 0.9330000281333923 145 117 116
0.03283625468611717 -0.1755269318819046 0.9390000700950623 148 125 122
0.03593232482671738 -0.1755269318819046 0.9390000700950623 153 141 141
0.03902839869260788 -0.1755269318819046 0.9390000700950623 153 147 151
0.04216933622956276 -0.17571385204792023 0.940000057220459 142 138 141
0.0452687032520771 -0.17571385204792023 0.940000057220459 174 173 175
0.048470985144376755 -0.17608770728111267 0.9420000314712524 188 188 190
0.051467444747686386 -0.17571385204792023 0.940000057220459 200 200 202
0.05439266562461853 -0.17515306174755096 0.937000036239624 176 176 178
0.057420797646045685 -0.17496614158153534 0.9360000491142273 179 175 178
0.060313042253255844 -0.17440533638000488 0.9330000281333923 161 157 158
0.06338933110237122 -0.17440533638000488 0.9330000281333923 160 156 157
0.06646562367677689 -0.17440533638000488 0.9330000281333923 158 152 154
0.06954191625118256 -0.17440533638000488 0.9330000281333923 153 147 149
-0.00897027924656868 -0.17416399717330933 0.940000057220459 157 141 134
-0.005864662583917379 -0.17397871613502502 0.9390000700950623 145 123 115
-0.002759744180366397 -0.17342287302017212 0.9360000491142273 140 115 108
0.00032643755548633635 -0.17342287302017212 0.9360000491142273 142 115 109
0.0034126192331314087 -0.17342287302017212 0.9360000491142273 152 126 126
0.006484914105385542 -0.17305231094360352 0.9340000152587891 161 139 141
0.009564501233398914 -0.17305231094360352 0.9340000152587891 155 140 141
0.012644087895751 -0.17305231094360352 0.9340000152587891 167 155 155
0.01570684090256691 -0.1728670299053192 0.9330000281333923 194 183 187
0.01878313161432743 -0.1728670299053192 0.9330000281333923 203 192 196
0.021859420463442802 -0.1728670299053192 0.9330000281333923 195 186 189
0.024935711175203323 -0.1728670299053192 0.9330000281333923 161 152 147
0.028012001886963844 -0.1728670299053192 0.9330000281333923 143 122 117
0.031188255175948143 -0.17342287302017212 0.9360000491142273 143 122 117
0.034384291619062424 -0.17397871613502502 0.9390000700950623 164 148 143
0.03748036548495293 -0.17397871613502502 0.9390000700950623 178 173 171
0.04061964899301529 -0.17416399717330933 0.940000057220459 190 190 192
0.04371901974081993 -0.17416399717330933 0.940000057220459 199 199 201
0.04681839048862457 -0.17416399717330933 0.940000057220459 189 188 188
0.050023965537548065 -0.17453455924987793 0.9420000314712524 179 178 178
0.052960727363824844 -0.17397871613502502 0.9390000700950623 176 176 176
0.05593740567564964 -0.17360815405845642 0.937000036239624 163 162 164
0.05896388739347458 -0.17342287302017212 0.9360000491142273 137 131 135
0.062050070613622665 -0.17342287302017212 0.9360000491142273 143 139 142
0.06499706953763962 -0.17305231094360352 0.9340000152587891 157 153 154
0.06807665526866913 -0.17305231094360352 0.9340000152587891 155 149 151
-0.007412699516862631 -0.17243050038814545 0.9390000700950623 143 121 113
-0.004307432100176811 -0.17206324636936188 0.937000036239624 141 116 109
-0.0012166532687842846 -0.1718796193599701 0.9360000491142273 139 112 106
0.0018655335297808051 -0.17151233553886414 0.9340000152587891 149 122 116
0.00493982620537281 -0.17132872343063354 0.9330000281333923 150 122 121
0.008016115985810757 -0.17132872343063354 0.9330000281333923 149 123 121
0.011092406697571278 -0.17132872343063354 0.9330000281333923 158 139 137
0.014168696478009224 -0.17132872343063354 0.9330000281333923 160 146 142
0.017244987189769745 -0.17132872343063354 0.9330000281333923 163 147 152
0.020321276038885117 -0.17132872343063354 0.9330000281333923 171 160 164
0.02339756488800049 -0.17132872343063354 0.9330000281333923 185 170 169
0.026445480063557625 -0.17114508152008057 0.9320000410079956 182 163 159
0.02955014817416668 -0.17132872343063354 0.9330000281333923 186 167 163
0.03276631236076355 -0.17206324636936188 0.937000036239624 185 169 166
0.03593232482671738 -0.17243050038814545 0.9390000700950623 182 174 173
0.03902839869260788 -0.17243050038814545 0.9390000700950623 176 172 175
0.04216933622956276 -0.17261414229869843 0.940000057220459 167 163 166
0.045365020632743835 -0.172981396317482 0.9420000314712524 169 165 166
0.048470985144376755 -0.172981396317482 0.9420000314712524 157 153 154
0.051467444747686386 -0.17261414229869843 0.940000057220459 140 136 137
0.054508764296770096 -0.17243050038814545 0.9390000700950623 131 127 128
0.0576048418879509 -0.17243050038814545 0.9390000700950623 125 119 123
0.06050698086619377 -0.1718796193599701 0.9360000491142273 132 126 130
0.06359315663576126 -0.1718796193599701 0.9360000491142273 144 138 140
0.06653685867786407 -0.17151233553886414 0.9340000152587891 156 150 152
0.06961644440889359 -0.17151233553886414 0.9340000152587891 151 146 144
-0.008998907171189785 -0.17161023616790771 0.9430000185966492 153 135 124
-0.005870908498764038 -0.17106428742408752 0.940000057220459 139 119 111
-0.002762692514806986 -0.17051832377910614 0.937000036239624 138 113 106
0.00032643755548633635 -0.17033635079860687 0.9360000491142273 145 118 112
0.0034053269773721695 -0.16997237503528595 0.9340000152587891 151 121 116
0.0064779710955917835 -0.16979040205478668 0.9330000281333923 145 115 110
0.009554261341691017 -0.16979040205478668 0.9330000281333923 144 113 111
0.012630551122128963 -0.16979040205478668 0.9330000281333923 144 116 113
0.01569000631570816 -0.16960842907428741 0.9320000410079956 149 126 123
0.01878313161432743 -0.16979040205478668 0.9330000281333923 157 135 137
0.021859420463442802 -0.16979040205478668 0.9330000281333923 159 142 144
0.02490898407995701 -0.16960842907428741 0.9320000410079956 147 127 130
0.028012001886963844 -0.16979040205478668 0.9330000281333923 144 124 125
0.03112161159515381 -0.16997237503528595 0.9340000152587891 144 125 123
0.03431105241179466 -0.17051832377910614 0.937000036239624 149 137 135
0.03748036548495293 -0.17088231444358826 0.9390000700950623 156 145 151
0.04057643935084343 -0.17088231444358826 0.9390000700950623 161 152 157
0.04367251321673393 -0.17088231444358826 0.9390000700950623 163 154 159
0.04681839048862457 -0.17106428742408752 0.940000057220459 150 144 146
0.050023965537548065 -0.17142824828624725 0.9420000314712524 136 130 132
0.052960727363824844 -0.17088231444358826 0.9390000700950623 123 117 119
0.056056804955005646 -0.17088231444358826 0.9390000700950623 125 119 121
0.05902688577771187 -0.17051832377910614 0.937000036239624 123 117 121
0.062050070613622665 -0.17033635079860687 0.9360000491142273 130 124 130
0.06499706953763962 -0.16997237503528595 0.9340000152587891 147 141 143
0.06807665526866913 -0.16997237503528595 0.9340000152587891 154 148 150
0.07115624099969864 -0.16997237503528595 0.9340000152587891 162 157 155
-0.007420593872666359 -0.16951443254947662 0.940000057220459 150 130 122
-0.004316626116633415 -0.16933409869670868 0.9390000700950623 138 113 106
-0.0012205528328195214 -0.16933409869670868 0.9390000700950623 141 114 108
0.0018695284379646182 -0.16879309713840485 0.9360000491142273 148 118 113
0.004945120308548212 -0.16843241453170776 0.9340000152587891 145 115 110
0.008016115985810757 -0.16825208067893982 0.9330000281333923 143 113 108
0.011092406697571278 -0.16825208067893982 0.9330000281333923 143 113 108
0.014153510332107544 -0.16807174682617188 0.9320000410079956 142 116 112
0.017226504161953926 -0.16807174682617188 0.9320000410079956 149 130 128
0.020321276038885117 -0.16825208067893982 0.9330000281333923 146 126 127
0.02339756488800049 -0.16825208067893982 0.9330000281333923 144 124 125
0.02647385559976101 -0.16825208067893982 0.9330000281333923 150 133 133
0.029581818729639053 -0.16843241453170776 0.9340000152587891 151 137 133
0.03283625468611717 -0.16933409869670868 0.9390000700950623 152 140 138
0.03593232482671738 -0.16933409869670868 0.9390000700950623 156 145 149
0.03902839869260788 -0.16933409869670868 0.9390000700950623 157 148 151
0.04212447255849838 -0.16933409869670868 0.9390000700950623 159 150 153
0.0452687032520771 -0.16951443254947662 0.940000057220459 158 149 152
0.048470985144376755 -0.16987508535385132 0.9420000314712524 151 146 144
0.051467444747686386 -0.16951443254947662 0.940000057220459 146 138 137
0.054508764296770096 -0.16933409869670868 0.9390000700950623 127 118 121
0.0576048418879509 -0.16933409869670868 0.9390000700950623 119 113 117
0.06050698086619377 -0.16879309713840485 0.9360000491142273 122 116 122
0.06359315663576126 -0.16879309713840485 0.9360000491142273 140 134 136
0.06667934358119965 -0.16879309713840485 0.9360000491142273 149 143 145
0.06961644440889359 -0.16843241453170776 0.9340000152587891 157 152 148
0.07261820137500763 -0.16825208067893982 0.9330000281333923 166 161 157
0.0756944939494133 -0.16825208067893982 0.9330000281333923 157 153 156
-0.00900845043361187 -0.16867932677268982 0.9440000653266907 157 132 123
-0.005883399397134781 -0.16832195222377777 0.9420000314712524 152 132 122
-0.0027685894165188074 -0.1677858978509903 0.9390000700950623 138 116 106
0.00032643755548633635 -0.16724982857704163 0.9360000491142273 146 119 113
0.0034126192331314087 -0.16724982857704163 0.9360000491142273 144 114 109
0.006484914105385542 -0.16689245402812958 0.9340000152587891 143 113 108
0.009544020518660545 -0.16653507947921753 0.9320000410079956 142 110 106
0.012617013417184353 -0.16653507947921753 0.9320000410079956 145 115 110
0.01569000631570816 -0.16653507947921753 0.9320000410079956 163 144 138
0.018762998282909393 -0.16653507947921753 0.9320000410079956 157 143 137
0.021835992112755775 -0.16653507947921753 0.9320000410079956 156 142 138
0.02490898407995701 -0.16653507947921753 0.9320000410079956 153 142 137
0.028012001886963844 -0.16671377420425415 0.9330000281333923 153 142 137
0.031188255175948143 -0.16724982857704163 0.9360000491142273 154 143 138
0.03431105241179466 -0.16742850840091705 0.937000036239624 152 145 139
0.03748036548495293 -0.1677858978509903 0.9390000700950623 156 148 145
0.04057643935084343 -0.1677858978509903 0.9390000700950623 158 149 152
0.04367251321673393 -0.1677858978509903 0.9390000700950623 158 149 152
0.04681839048862457 -0.16796457767486572 0.940000057220459 156 147 150
0.050023965537548065 -0.16832195222377777 0.9420000314712524 153 148 146
0.052960727363824844 -0.1677858978509903 0.9390000700950623 146 141 139
0.056056804955005646 -0.1677858978509903 0.9390000700950623 122 114 113
0.05915287509560585 -0.1677858978509903 0.9390000700950623 119 113 117
0.062050070613622665 -0.16724982857704163 0.9360000491142273 126 120 126
0.06513624638319016 -0.16724982857704163 0.9360000491142273 142 138 141
0.06822243332862854 -0.16724982857704163 0.9360000491142273 155 149 151
0.07115624099969864 -0.16689245402812958 0.9340000152587891 171 166 164
0.07415635138750076 -0.16671377420425415 0.9330000281333923 175 171 164
-0.007444276008754969 -0.16694581508636475 0.9430000185966492 156 134 126
-0.004330417141318321 -0.16676878929138184 0.9420000314712524 159 137 127
-0.0012205528328195214 -0.16623768210411072 0.9390000700950623 143 118 109
0.0018695284379646182 -0.1657065600156784 0.9360000491142273 145 115 110
0.004945120308548212 -0.1653524935245514 0.9340000152587891 144 112 108
0.008016115985810757 -0.1651754528284073 0.9330000281333923 144 112 108
0.011080517433583736 -0.16499842703342438 0.9320000410079956 145 124 121
0.014153510332107544 -0.16499842703342438 0.9320000410079956 160 146 140
0.017226504161953926 -0.16499842703342438 0.9320000410079956 158 147 142
0.02029949426651001 -0.16499842703342438 0.9320000410079956 158 146 144
0.023372488096356392 -0.16499842703342438 0.9320000410079956 156 146 144
0.02647385559976101 -0.1651754528284073 0.9330000281333923 152 142 140
0.02955014817416668 -0.1651754528284073 0.9330000281333923 152 144 141
0.03276631236076355 -0.1658836007118225 0.937000036239624 152 144 141
0.03593232482671738 -0.16623768210411072 0.9390000700950623 154 149 147
0.03902839869260788 -0.16623768210411072 0.9390000700950623 155 150 148
0.04212447255849838 -0.16623768210411072 0.9390000700950623 156 151 149
0.0452687032520771 -0.16641472280025482 0.940000057220459 155 150 148
0.04836807772517204 -0.16641472280025482 0.940000057220459 153 148 146
0.051467444747686386 -0.16641472280025482 0.940000057220459 150 145 143
0.054508764296770096 -0.16623768210411072 0.9390000700950623 149 141 140
0.0576048418879509 -0.16623768210411072 0.9390000700950623 118 112 116
0.06050698086619377 -0.1657065600156784 0.9360000491142273 121 117 122
0.06359315663576126 -0.1657065600156784 0.9360000491142273 134 130 133
0.06667934358119965 -0.1657065600156784 0.9360000491142273 155 149 151
0.06961644440889359 -0.1653524935245514 0.9340000152587891 169 166 163
0.07261820137500763 -0.1651754528284073 0.9330000281333923 178 175 172
0.0756944939494133 -0.1651754528284073 0.9330000281333923 150 149 153
-0.009037078358232975 -0.16609257459640503 0.9470000267028809 141 107 99
-0.00588964531198144 -0.1653910130262375 0.9430000185966492 162 137 130
-0.0027685894165188074 -0.16468948125839233 0.9390000700950623 150 130 120
0.0003267863066866994 -0.16433870792388916 0.937000036239624 142 120 110
0.0034126192331314087 -0.16416330635547638 0.9360000491142273 141 114 108
0.006484914105385542 -0.1638125330209732 0.9340000152587891 145 115 110
0.009544020518660545 -0.16346175968647003 0.9320000410079956 163 138 131
0.012617013417184353 -0.16346175968647003 0.9320000410079956 159 148 141
0.01569000631570816 -0.16346175968647003 0.9320000410079956 159 150 145
0.018762998282909393 -0.16346175968647003 0.9320000410079956 156 146 144
0.021835992112755775 -0.16346175968647003 0.9320000410079956 155 147 144
0.02490898407995701 -0.16346175968647003 0.9320000410079956 153 145 142
0.028012001886963844 -0.16363714635372162 0.9330000281333923 152 144 141
0.031221574172377586 -0.16433870792388916 0.937000036239624 153 145 142
0.03431105241179466 -0.16433870792388916 0.937000036239624 153 148 144
0.03748036548495293 -0.16468948125839233 0.9390000700950623 154 149 147
0.04057643935084343 -0.16468948125839233 0.9390000700950623 155 150 148
0.04367251321673393 -0.16468948125839233 0.9390000700950623 156 151 149
0.04681839048862457 -0.16486486792564392 0.940000057220459 154 149 147
0.049917757511138916 -0.16486486792564392 0.940000057220459 153 148 146
0.052960727363824844 -0.16468948125839233 0.9390000700950623 150 145 143
0.056056804955005646 -0.16468948125839233 0.9390000700950623 129 124 122
0.05902688577771187 -0.16433870792388916 0.937000036239624 134 128 132
0.062050070613622665 -0.16416330635547638 0.9360000491142273 133 131 138
0.06513624638319016 -0.16416330635547638 0.9360000491142273 148 144 147
0.06807665526866913 -0.1638125330209732 0.9340000152587891 177 171 173
0.07108005881309509 -0.16363714635372162 0.9330000281333923 182 177 175
-0.00905616395175457 -0.16487866640090942 0.9490000605583191 141 105 97
-0.005908382125198841 -0.16435745358467102 0.9460000395774841 153 121 117
-0.0027715377509593964 -0.16331501305103302 0.940000057220459 154 132 122
0.0003274838381912559 -0.16314128041267395 0.9390000700950623 147 127 117
0.003416264895349741 -0.16279378533363342 0.937000036239624 140 118 110
0.006498800590634346 -0.16262005269527435 0.9360000491142273 157 135 127
0.009544020518660545 -0.16192509233951569 0.9320000410079956 161 145 138
0.012617013417184353 -0.16192509233951569 0.9320000410079956 160 151 144
0.01569000631570816 -0.16192509233951569 0.9320000410079956 159 152 146
0.018762998282909393 -0.16192509233951569 0.9320000410079956 156 149 143
0.021835992112755775 -0.16192509233951569 0.9320000410079956 155 147 144
0.02490898407995701 -0.16192509233951569 0.9320000410079956 155 147 144
0.02798197790980339 -0.16192509233951569 0.9320000410079956 153 145 142
0.031088290736079216 -0.16209882497787476 0.9330000281333923 155 147 144
0.03427443653345108 -0.16262005269527435 0.9360000491142273 153 148 144
0.03740053251385689 -0.16279378533363342 0.937000036239624 154 149 147
0.040446799248456955 -0.16262005269527435 0.9360000491142273 155 150 148
0.04357948899269104 -0.16279378533363342 0.937000036239624 156 151 149
0.046668969094753265 -0.16279378533363342 0.937000036239624 154 149 147
0.04986465722322464 -0.16314128041267395 0.9390000700950623 153 148 146
0.052960727363824844 -0.16314128041267395 0.9390000700950623 150 145 143
0.05593740567564964 -0.16279378533363342 0.937000036239624 139 130 133
0.05896388739347458 -0.16262005269527435 0.9360000491142273 144 138 142
0.06191748380661011 -0.16227257251739502 0.9340000152587891 142 137 145
0.06499706953763962 -0.16227257251739502 0.9340000152587891 167 163 166
0.06807665526866913 -0.16227257251739502 0.9340000152587891 180 174 176
0.07108005881309509 -0.16209882497787476 0.9330000281333923 172 166 168
-0.00905616395175457 -0.16331396996974945 0.9490000605583191 140 102 93
-0.0059146280400455 -0.16296978294849396 0.9470000267028809 144 109 104
-0.002777434652671218 -0.16210933029651642 0.9420000314712524 156 131 122
0.00032783258939161897 -0.16176515817642212 0.940000057220459 154 134 124
0.003423557383939624 -0.16159306466579437 0.9390000700950623 152 134 125
0.006498800590634346 -0.16107678413391113 0.9360000491142273 158 143 133
0.009554261341691017 -0.1605605185031891 0.9330000281333923 160 149 140
0.012630551122128963 -0.1605605185031891 0.9330000281333923 159 152 144
0.01569000631570816 -0.16038842499256134 0.9320000410079956 160 153 147
0.018762998282909393 -0.16038842499256134 0.9320000410079956 157 150 144
0.021859420463442802 -0.1605605185031891 0.9330000281333923 154 149 145
0.02490898407995701 -0.16038842499256134 0.9320000410079956 154 149 145
0.02798197790980339 -0.16038842499256134 0.9320000410079956 154 149 145
0.031054971739649773 -0.16038842499256134 0.9320000410079956 153 148 144
0.034127965569496155 -0.16038842499256134 0.9320000410079956 154 149 145
0.03724087029695511 -0.1605605185031891 0.9330000281333923 155 150 148
0.04027394950389862 -0.16038842499256134 0.9320000410079956 155 150 148
0.04339345172047615 -0.1605605185031891 0.9330000281333923 156 151 149
0.04646974056959152 -0.1605605185031891 0.9330000281333923 154 149 147
0.049705345183610916 -0.16107678413391113 0.9360000491142273 153 148 146
0.05284792557358742 -0.16124887764453888 0.937000036239624 149 144 142
0.05587771162390709 -0.16107678413391113 0.9360000491142273 136 131 129
0.0588378943502903 -0.16073261201381683 0.9340000152587891 146 137 140
0.06185119226574898 -0.1605605185031891 0.9330000281333923 156 150 154
0.06492748111486435 -0.1605605185031891 0.9330000281333923 179 173 175
0.06800376623868942 -0.1605605185031891 0.9330000281333923 178 172 174
0.07100387662649155 -0.16038842499256134 0.9320000410079956 165 159 163
-0.007475852966308594 -0.16140839457511902 0.9470000267028809 141 105 95
-0.004339611157774925 -0.16089707612991333 0.9440000653266907 144 117 109
-0.0012244523968547583 -0.16055616736412048 0.9420000314712524 147 127 119
0.001877517905086279 -0.16021530330181122 0.940000057220459 150 135 125
0.004955709911882877 -0.1595335304737091 0.9360000491142273 155 139 132
0.008016115985810757 -0.15902219712734222 0.9330000281333923 160 149 142
0.011092406697571278 -0.15902219712734222 0.9330000281333923 159 152 144
0.014153510332107544 -0.158851757645607 0.9320000410079956 160 153 147
0.017226504161953926 -0.158851757645607 0.9320000410079956 156 151 147
0.020255934447050095 -0.15851087868213654 0.9300000667572021 155 150 146
0.02339756488800049 -0.15902219712734222 0.9330000281333923 155 150 146
0.026388732716441154 -0.15851087868213654 0.9300000667572021 154 149 145
0.03259146586060524 -0.158851757645607 0.9320000410079956 154 149 145
0.035702724009752274 -0.15902219712734222 0.9330000281333923 155 150 146
0.038737453520298004 -0.158851757645607 0.9320000410079956 156 151 149
0.04181044548749924 -0.158851757645607 0.9320000410079956 155 150 148
0.044931598007678986 -0.15902219712734222 0.9330000281333923 154 149 147
0.04805934056639671 -0.15919263660907745 0.9340000152587891 153 148 146
0.05124843493103981 -0.1595335304737091 0.9360000491142273 149 144 142
0.0543346181511879 -0.1595335304737091 0.9360000491142273 178 170 167
0.057420797646045685 -0.1595335304737091 0.9360000491142273 167 157 155
0.060313042253255844 -0.15902219712734222 0.9330000281333923 177 168 171
0.06338933110237122 -0.15902219712734222 0.9330000281333923 182 176 178
0.06646562367677689 -0.15902219712734222 0.9330000281333923 175 171 172
0.06954191625118256 -0.15902219712734222 0.9330000281333923 163 157 161
0.07254037261009216 -0.158851757645607 0.9320000410079956 165 161 162
-0.007491642143577337 -0.1601845771074295 0.9490000605583191 143 105 96
-0.004348805174231529 -0.15967819094657898 0.9460000395774841 145 116 106
-0.0012257520575076342 -0.15917181968688965 0.9430000185966492 144 124 116
0.001877517905086279 -0.15866544842720032 0.940000057220459 149 133 126
0.004955709911882877 -0.1579902619123459 0.9360000491142273 152 136 129
0.008016115985810757 -0.15748389065265656 0.9330000281333923 156 145 138
0.011080517433583736 -0.15731510519981384 0.9320000410079956 159 150 143
0.014123138040304184 -0.15697751939296722 0.9300000667572021 160 153 147
0.017134087160229683 -0.1564711332321167 0.9270000457763672 157 152 148
0.020190592855215073 -0.1564711332321167 0.9270000457763672 156 151 147
0.026303606107831 -0.1564711332321167 0.9270000457763672 155 150 146
0.029328441247344017 -0.1563023328781128 0.9260000586509705 154 151 146
0.032381653785705566 -0.1563023328781128 0.9260000586509705 153 150 145
0.03547312691807747 -0.1564711332321167 0.9270000457763672 154 151 146
0.03852963075041771 -0.1564711332321167 0.9270000457763672 155 152 147
0.04158613830804825 -0.1564711332321167 0.9270000457763672 154 151 146
0.044787123799324036 -0.15697751939296722 0.9300000667572021 154 149 145
0.04785352200269699 -0.15697751939296722 0.9300000667572021 153 148 144
0.05108417570590973 -0.15748389065265656 0.9330000281333923 152 144 141
0.0541604645550251 -0.15748389065265656 0.9330000281333923 179 170 165
0.0571754090487957 -0.15731510519981384 0.9320000410079956 196 187 182
0.06011911854147911 -0.15697751939296722 0.9300000667572021 184 176 173
0.06318552047014236 -0.15697751939296722 0.9300000667572021 179 174 170
0.06625191122293472 -0.15697751939296722 0.9300000667572021 171 168 165
0.06931830942630768 -0.15697751939296722 0.9300000667572021 162 158 159
0.07254037261009216 -0.15731510519981384 0.9320000410079956 168 164 165
-0.005933364853262901 -0.15878702700138092 0.9500000476837158 150 107 98
-0.002783331787213683 -0.15778416395187378 0.9440000653266907 149 118 107
0.00032853009179234505 -0.157449871301651 0.9420000314712524 149 127 117
0.003423557383939624 -0.15694844722747803 0.9390000700950623 149 133 126
0.006498800590634346 -0.15644700825214386 0.9360000491142273 154 138 131
0.009544020518660545 -0.1557784378528595 0.9320000410079956 155 141 135
0.012589938938617706 -0.15544414520263672 0.9300000667572021 159 148 141
0.015639502555131912 -0.15527699887752533 0.9290000200271606 159 152 146
0.018662339076399803 -0.15494270622730255 0.9270000457763672 156 151 147
0.021718846634030342 -0.15494270622730255 0.9270000457763672 156 151 147
0.02783185802400112 -0.15494270622730255 0.9270000457763672 155 150 146
0.030855046585202217 -0.15477557480335236 0.9260000586509705 155 152 147
0.03390825539827347 -0.15477557480335236 0.9260000586509705 154 151 146
0.03700137883424759 -0.15494270622730255 0.9270000457763672 154 151 146
0.04005788639187813 -0.15494270622730255 0.9270000457763672 155 152 147
0.04311439394950867 -0.15494270622730255 0.9270000457763672 154 151 146
0.04617089778184891 -0.15494270622730255 0.9270000457763672 154 149 145
0.049333613365888596 -0.15527699887752533 0.9290000200271606 162 157 153
0.052453119307756424 -0.15544414520263672 0.9300000667572021 180 173 167
0.05551951751112938 -0.15544414520263672 0.9300000667572021 201 192 187
0.05858591943979263 -0.15544414520263672 0.9300000667572021 192 183 176
0.06158601865172386 -0.15527699887752533 0.9290000200271606 187 180 174
0.06464911997318268 -0.15527699887752533 0.9290000200271606 172 169 164
0.06756644695997238 -0.15494270622730255 0.9270000457763672 165 162 159
0.07047058641910553 -0.15460842847824097 0.9250000715255737 168 164 165
-0.005933364853262901 -0.15722067654132843 0.9500000476837158 150 103 92
-0.002783331787213683 -0.1562277227640152 0.9440000653266907 153 119 111
0.00032853009179234505 -0.15589672327041626 0.9420000314712524 154 129 120
0.003423557383939624 -0.15540024638175964 0.9390000700950623 150 134 127
0.006498800590634346 -0.15490375459194183 0.9360000491142273 150 134 127
0.009523540735244751 -0.1539107710123062 0.9300000667572021 154 138 133
0.012576400302350521 -0.15374527871608734 0.9290000200271606 156 142 136
0.015605833381414413 -0.1534142941236496 0.9270000457763672 156 147 142
0.018662339076399803 -0.1534142941236496 0.9270000457763672 156 148 145
0.021718846634030342 -0.1534142941236496 0.9270000457763672 156 148 145
0.024748627096414566 -0.15324880182743073 0.9260000586509705 157 149 146
0.027771811932325363 -0.15308330953121185 0.9250000715255737 155 150 146
0.030821725726127625 -0.15308330953121185 0.9250000715255737 156 151 147
0.033871639519929886 -0.15308330953121185 0.9250000715255737 155 152 147
0.03692154958844185 -0.15308330953121185 0.9250000715255737 155 152 147
0.04001467302441597 -0.15324880182743073 0.9260000586509705 156 153 148
0.04311439394950867 -0.1534142941236496 0.9270000457763672 157 152 148
0.04617089778184891 -0.1534142941236496 0.9270000457763672 165 157 154
0.049333613365888596 -0.15374527871608734 0.9290000200271606 171 167 160
0.052453119307756424 -0.1539107710123062 0.9300000667572021 180 176 167
0.05551951751112938 -0.1539107710123062 0.9300000667572021 190 181 176
0.05858591943979263 -0.1539107710123062 0.9300000667572021 187 178 171
0.06158601865172386 -0.15374527871608734 0.9290000200271606 172 167 163
0.06464911997318268 -0.15374527871608734 0.9290000200271606 171 168 165
0.06756644695997238 -0.1534142941236496 0.9270000457763672 164 161 158
0.07047058641910553 -0.15308330953121185 0.9250000715255737 168 164 165
-0.0043625966645777225 -0.15549050271511078 0.9490000605583191 148 107 99
-0.0012296517379581928 -0.15499895811080933 0.9460000395774841 153 126 118
0.001883509918116033 -0.15450741350650787 0.9430000185966492 151 135 128
0.004955709911882877 -0.1533604860305786 0.9360000491142273 151 137 131
0.008016115985810757 -0.15286894142627716 0.9330000281333923 150 136 130
0.011056739836931229 -0.1523774117231369 0.9300000667572021 151 137 131
0.014107951894402504 -0.15221355855464935 0.9290000200271606 154 140 134
0.017134087160229683 -0.15188586711883545 0.9270000457763672 154 143 138
0.020190592855215073 -0.15188586711883545 0.9270000457763672 156 144 142
0.023222023621201515 -0.1517220139503479 0.9260000586509705 153 143 141
0.02624685689806938 -0.15155817568302155 0.9250000715255737 156 146 144
0.029233425855636597 -0.15123048424720764 0.9230000376701355 157 149 146
0.03227674216032028 -0.15123048424720764 0.9230000376701355 157 149 146
0.03539659455418587 -0.15155817568302155 0.9250000715255737 158 150 147
0.03836337849497795 -0.15123048424720764 0.9230000376701355 159 151 148
0.041406698524951935 -0.15123048424720764 0.9230000376701355 163 155 152
0.04459448903799057 -0.1517220139503479 0.9260000586509705 165 157 154
0.04764769971370697 -0.1517220139503479 0.9260000586509705 171 162 157
0.05086516588926315 -0.15221355855464935 0.9290000200271606 174 165 158
0.0539863184094429 -0.1523774117231369 0.9300000667572021 175 166 159
0.056991368532180786 -0.15221355855464935 0.9290000200271606 178 169 164
0.059925179928541183 -0.15188586711883545 0.9270000457763672 171 163 160
0.06298168748617172 -0.15188586711883545 0.9270000457763672 171 168 165
0.06603819131851196 -0.15188586711883545 0.9270000457763672 161 160 162
0.06902016699314117 -0.1517220139503479 0.9260000586509705 165 164 166
-0.0043625966645777225 -0.1539258062839508 0.9490000605583191 147 104 95
-0.0012296517379581928 -0.1534392088651657 0.9460000395774841 153 126 118
0.001883509918116033 -0.15295261144638062 0.9430000185966492 154 138 133
0.004955709911882877 -0.1518172323703766 0.9360000491142273 151 137 131
0.008016115985810757 -0.1513306349515915 0.9330000281333923 151 140 135
0.011056739836931229 -0.1508440375328064 0.9300000667572021 149 138 133
0.014123138040304184 -0.1508440375328064 0.9300000667572021 147 136 131
0.017134087160229683 -0.1503574550151825 0.9270000457763672 148 137 132
0.020190592855215073 -0.1503574550151825 0.9270000457763672 151 136 135
0.023222023621201515 -0.15019525587558746 0.9260000586509705 153 138 137
0.02624685689806938 -0.15003305673599243 0.9250000715255737 156 142 138
0.029233425855636597 -0.14970865845680237 0.9230000376701355 156 145 140
0.03227674216032028 -0.14970865845680237 0.9230000376701355 156 147 142
0.03539659455418587 -0.15003305673599243 0.9250000715255737 157 148 143
0.03836337849497795 -0.14970865845680237 0.9230000376701355 158 149 144
0.041406698524951935 -0.14970865845680237 0.9230000376701355 160 151 146
0.04459448903799057 -0.15019525587558746 0.9260000586509705 162 153 148
0.04764769971370697 -0.15019525587558746 0.9260000586509705 168 157 152
0.05086516588926315 -0.15068183839321136 0.9290000200271606 171 160 153
0.05392826721072197 -0.15068183839321136 0.9290000200271606 167 156 149
0.056991368532180786 -0.15068183839321136 0.9290000200271606 172 163 158
0.059860534965991974 -0.15019525587558746 0.9260000586509705 171 163 160
0.06291374564170837 -0.15019525587558746 0.9260000586509705 171 168 163
0.06596695631742477 -0.15019525587558746 0.9260000586509705 153 152 152
0.06894563138484955 -0.15003305673599243 0.9250000715255737 165 164 166
-0.002789228456094861 -0.1518794596195221 0.9460000395774841 157 114 107
0.0003288788429927081 -0.15139780938625336 0.9430000185966492 160 130 123
0.003423557383939624 -0.1507556140422821 0.9390000700950623 157 138 134
0.006498800590634346 -0.15027396380901337 0.9360000491142273 154 140 134
0.009523540735244751 -0.14931067824363708 0.9300000667572021 153 142 137
0.012576400302350521 -0.14915011823177338 0.9290000200271606 152 141 136
0.015605833381414413 -0.14882902801036835 0.9270000457763672 149 138 133
0.018642207607626915 -0.14866848289966583 0.9260000586509705 148 137 132
0.02167198807001114 -0.14850792288780212 0.9250000715255737 148 133 132
0.02466844767332077 -0.1481868326663971 0.9230000376701355 148 133 132
0.02768174186348915 -0.14802628755569458 0.9220000505447388 151 135 132
0.030721763148903847 -0.14802628755569458 0.9220000505447388 149 133 128
0.03376178443431854 -0.14802628755569458 0.9220000505447388 155 141 137
0.03680180385708809 -0.14802628755569458 0.9220000505447388 157 143 139
0.039841823279857635 -0.14802628755569458 0.9220000505447388 158 147 142
0.04288184642791748 -0.14802628755569458 0.9220000505447388 161 150 145
0.04607129096984863 -0.14850792288780212 0.9250000715255737 161 150 145
0.04917430505156517 -0.14866848289966583 0.9260000586509705 163 152 147
0.05239671468734741 -0.14915011823177338 0.9290000200271606 166 155 150
0.05545981973409653 -0.14915011823177338 0.9290000200271606 169 158 153
0.05839692801237106 -0.14882902801036835 0.9270000457763672 193 183 181
0.06138714402914047 -0.14866848289966583 0.9260000586509705 171 163 160
0.06450994312763214 -0.14882902801036835 0.9270000457763672 169 166 163
0.06742067635059357 -0.14850792288780212 0.9250000715255737 158 154 155
-0.0012296517379581928 -0.15031971037387848 0.9460000395774841 152 125 117
0.001883509918116033 -0.1498429924249649 0.9430000185966492 154 135 131
0.004955709911882877 -0.14873071014881134 0.9360000491142273 157 143 137
0.008016115985810757 -0.14825400710105896 0.9330000281333923 155 144 139
0.011056739836931229 -0.14777730405330658 0.9300000667572021 155 144 139
0.014107951894402504 -0.1476183980703354 0.9290000200271606 153 142 137
0.017115604132413864 -0.147141695022583 0.9260000586509705 151 140 135
0.020147033035755157 -0.1469828188419342 0.9250000715255737 149 138 133
0.02319694496691227 -0.1469828188419342 0.9250000715255737 148 136 134
0.026190105825662613 -0.14666500687599182 0.9230000376701355 149 135 131
0.0291700791567564 -0.14634720981121063 0.921000063419342 149 135 131
0.03220680356025696 -0.14634720981121063 0.921000063419342 149 135 131
0.035281796008348465 -0.14650610089302063 0.9220000505447388 154 140 136
0.03832181543111801 -0.14650610089302063 0.9220000505447388 154 143 138
0.04131697863340378 -0.14634720981121063 0.921000063419342 156 145 140
0.04435369744896889 -0.14634720981121063 0.921000063419342 156 146 144
0.047596246004104614 -0.1469828188419342 0.9250000715255737 158 148 146
0.05070090666413307 -0.147141695022583 0.9260000586509705 160 151 146
0.053812164813280106 -0.1473006010055542 0.9270000457763672 164 155 150
0.056868672370910645 -0.1473006010055542 0.9270000457763672 170 162 159
0.059860534965991974 -0.147141695022583 0.9260000586509705 170 162 161
0.06291374564170837 -0.147141695022583 0.9260000586509705 169 166 163
0.06589572131633759 -0.1469828188419342 0.9250000715255737 145 141 142
-0.002789228456094861 -0.14875996112823486 0.9460000395774841 161 120 110
0.0003288788429927081 -0.14828820526599884 0.9430000185966492 157 131 120
0.003427203046157956 -0.14781644940376282 0.940000057220459 158 139 133
0.006498800590634346 -0.14718745648860931 0.9360000491142273 158 144 138
0.009523540735244751 -0.14624392986297607 0.9300000667572021 156 145 138
0.012576400302350521 -0.1460866779088974 0.9290000200271606 156 145 140
0.015605833381414413 -0.14577217400074005 0.9270000457763672 155 144 139
0.018642207607626915 -0.14561493694782257 0.9260000586509705 153 142 137
0.02167198807001114 -0.1454576849937439 0.9250000715255737 152 141 136
0.02466844767332077 -0.14514318108558655 0.9230000376701355 151 140 135
0.02768174186348915 -0.14498592913150787 0.9220000505447388 149 138 133
0.030688444152474403 -0.1448286771774292 0.921000063419342 147 136 131
0.03372516483068466 -0.1448286771774292 0.921000063419342 151 140 135
0.03680180385708809 -0.14498592913150787 0.9220000505447388 153 142 137
0.039841823279857635 -0.14498592913150787 0.9220000505447388 152 141 136
0.042835336178541183 -0.1448286771774292 0.921000063419342 152 142 140
0.045921869575977325 -0.14498592913150787 0.9220000505447388 150 140 138
0.049121201038360596 -0.1454576849937439 0.9250000715255737 154 144 142
0.052283912897109985 -0.14577217400074005 0.9270000457763672 162 152 150
0.05534042418003082 -0.14577217400074005 0.9270000457763672 166 156 154
0.05833393335342407 -0.14561493694782257 0.9260000586509705 167 159 158
0.06138714402914047 -0.14561493694782257 0.9260000586509705 169 164 162
0.06444034725427628 -0.14561493694782257 0.9260000586509705 174 171 168
0.00032853009179234505 -0.14657780528068542 0.9420000314712524 159 128 117
0.003423557383939624 -0.14611099660396576 0.9390000700950623 161 139 131
0.006498800590634346 -0.1456441879272461 0.9360000491142273 157 143 135
0.009523540735244751 -0.14471057057380676 0.9300000667572021 158 144 138
0.012576400302350521 -0.1445549577474594 0.9290000200271606 160 146 140
0.015605833381414413 -0.1442437618970871 0.9270000457763672 156 145 138
0.018642207607626915 -0.14408816397190094 0.9260000586509705 155 144 137
0.02167198807001114 -0.1439325511455536 0.9250000715255737 154 143 136
0.02466844767332077 -0.14362134039402008 0.9230000376701355 152 141 134
0.02768174186348915 -0.14346575736999512 0.9220000505447388 152 141 134
0.030688444152474403 -0.14331014454364777 0.921000063419342 149 138 131
0.03372516483068466 -0.14331014454364777 0.921000063419342 147 136 131
0.03676189109683037 -0.14331014454364777 0.921000063419342 144 133 128
0.039841823279857635 -0.14346575736999512 0.9220000505447388 144 133 128
0.042835336178541183 -0.14331014454364777 0.921000063419342 145 134 129
0.045921869575977325 -0.14346575736999512 0.9220000505447388 148 136 136
0.04901499301195145 -0.14362134039402008 0.9230000376701355 150 140 140
0.05222751572728157 -0.14408816397190094 0.9260000586509705 158 148 148
0.05528072267770767 -0.14408816397190094 0.9260000586509705 164 154 152
0.05833393335342407 -0.14408816397190094 0.9260000586509705 163 155 154
0.06132085248827934 -0.1439325511455536 0.9250000715255737 169 163 165
0.0643707662820816 -0.1439325511455536 0.9250000715255737 177 173 174
0.003423557383939624 -0.14456278085708618 0.9390000700950623 167 136 125
0.006505743600428104 -0.1442548781633377 0.937000036239624 162 140 130
0.009544020518660545 -0.14348511397838593 0.9320000410079956 159 139 131
0.012576400302350521 -0.14302323758602142 0.9290000200271606 163 144 138
0.015605833381414413 -0.14271533489227295 0.9270000457763672 161 145 138
0.018642207607626915 -0.1425613909959793 0.9260000586509705 157 143 135
0.02167198807001114 -0.14240743219852448 0.9250000715255737 157 143 135
0.02466844767332077 -0.142099529504776 0.9230000376701355 155 139 132
0.027651719748973846 -0.14179162681102753 0.921000063419342 158 139 133
0.030688444152474403 -0.14179162681102753 0.921000063419342 149 126 121
0.03372516483068466 -0.14179162681102753 0.921000063419342 143 120 115
0.03676189109683037 -0.14179162681102753 0.921000063419342 139 118 115
0.039798613637685776 -0.14179162681102753 0.921000063419342 140 121 117
0.04288184642791748 -0.14194557070732117 0.9220000505447388 143 129 125
0.04597167298197746 -0.142099529504776 0.9230000376701355 145 135 133
0.04901499301195145 -0.142099529504776 0.9230000376701355 150 140 140
0.05222751572728157 -0.1425613909959793 0.9260000586509705 156 146 146
0.05528072267770767 -0.1425613909959793 0.9260000586509705 161 153 152
0.05833393335342407 -0.1425613909959793 0.9260000586509705 158 150 149
0.06132085248827934 -0.14240743219852448 0.9250000715255737 166 160 162
0.0643707662820816 -0.14240743219852448 0.9250000715255737 178 174 177
0.027651719748973846 -0.1402730941772461 0.921000063419342 140 106 98
0.030688444152474403 -0.1402730941772461 0.921000063419342 144 106 99
0.03372516483068466 -0.1402730941772461 0.921000063419342 144 105 101
0.03676189109683037 -0.1402730941772461 0.921000063419342 150 113 108
0.039798613637685776 -0.1402730941772461 0.921000063419342 150 123 117
0.04288184642791748 -0.1404253989458084 0.9220000505447388 154 140 134
0.04597167298197746 -0.14057768881320953 0.9230000376701355 151 141 139
0.049121201038360596 -0.14088231325149536 0.9250000715255737 153 145 142
0.05222751572728157 -0.14103461802005768 0.9260000586509705 155 147 146
0.05528072267770767 -0.14103461802005768 0.9260000586509705 144 136 135
0.05833393335342407 -0.14103461802005768 0.9260000586509705 156 147 150
0.06132085248827934 -0.14088231325149536 0.9250000715255737 162 156 160
0.0643707662820816 -0.14088231325149536 0.9250000715255737 163 162 164
0.030688444152474403 -0.13875456154346466 0.921000063419342 142 96 88
0.03372516483068466 -0.13875456154346466 0.921000063419342 138 92 86
0.03676189109683037 -0.13875456154346466 0.921000063419342 152 104 98
0.039798613637685776 -0.13875456154346466 0.921000063419342 158 120 113
0.04288184642791748 -0.13890521228313446 0.9220000505447388 160 141 135
0.04597167298197746 -0.13905587792396545 0.9230000376701355 152 143 138
0.049121201038360596 -0.13935719430446625 0.9250000715255737 155 147 146
0.05222751572728157 -0.13950784504413605 0.9260000586509705 155 147 146
0.05528072267770767 -0.13950784504413605 0.9260000586509705 146 138 137
0.05833393335342407 -0.13950784504413605 0.9260000586509705 155 146 149
0.06132085248827934 -0.13935719430446625 0.9250000715255737 158 154 157
0.0643707662820816 -0.13935719430446625 0.9250000715255737 152 151 153
0.03376178443431854 -0.1373850405216217 0.9220000505447388 135 88 77
0.03680180385708809 -0.1373850405216217 0.9220000505447388 148 98 91
0.039885036647319794 -0.137534037232399 0.9230000376701355 155 112 105
0.04292835295200348 -0.137534037232399 0.9230000376701355 163 138 131
0.04612109437584877 -0.13798107206821442 0.9260000586509705 161 150 145
0.04917430505156517 -0.13798107206821442 0.9260000586509705 159 151 148
0.05239671468734741 -0.13842807710170746 0.9290000200271606 159 149 149
0.05545981973409653 -0.13842807710170746 0.9290000200271606 152 144 143
0.058522917330265045 -0.13842807710170746 0.9290000200271606 153 147 149
0.06158601865172386 -0.13842807710170746 0.9290000200271606 158 154 155
0.06450994312763214 -0.1381300836801529 0.9270000457763672 139 138 142
0.035281796008348465 -0.13586486876010895 0.9220000505447388 140 87 81
0.03836337849497795 -0.1360122263431549 0.9230000376701355 147 99 93
0.04154128208756447 -0.13645429909229279 0.9260000586509705 158 126 120
0.04464264586567879 -0.13660165667533875 0.9270000457763672 162 151 146
0.047956433147192 -0.13733844459056854 0.9320000410079956 165 155 153
0.03844650834798813 -0.1347818225622177 0.9250000715255737 145 95 88
0.04154128208756447 -0.13492752611637115 0.9260000586509705 146 109 104
0.04464264586567879 -0.1350732296705246 0.9270000457763672 164 150 146
0.047956433147192 -0.1358017772436142 0.9320000410079956 165 155 153
0.051303185522556305 -0.1365303248167038 0.937000036239624 165 155 153
0.03861276060342789 -0.1338329315185547 0.9290000200271606 140 90 85
0.04172072559595108 -0.1339769959449768 0.9300000667572021 138 101 96
0.04488343745470047 -0.13426512479782104 0.9320000410079956 164 150 144
0.04805934056639671 -0.1345532387495041 0.9340000152587891 162 152 150
0.051303185522556305 -0.13498543202877045 0.937000036239624 157 149 148
0.05479901656508446 -0.1359938532114029 0.9440000653266907 157 153 154
0.03708121180534363 -0.1323012113571167 0.9290000200271606 134 84 79
0.0401875264942646 -0.1324436366558075 0.9300000667572021 144 94 91
0.043346941471099854 -0.1327284574508667 0.9320000410079956 163 131 127
0.04651954770088196 -0.1330132782459259 0.9340000152587891 156 147 142
0.04959913343191147 -0.1330132782459259 0.9340000152587891 146 137 140
0.0531863309442997 -0.13429498672485352 0.9430000185966492 149 143 147
0.056355297565460205 -0.13443739712238312 0.9440000653266907 154 152 159
0.038737453520298004 -0.13119179010391235 0.9320000410079956 126 82 80
0.041855305433273315 -0.13133254647254944 0.9330000281333923 148 127 122
0.045076072216033936 -0.13175484538078308 0.9360000491142273 151 143 140
0.04831662029027939 -0.13217712938785553 0.9390000700950623 144 138 144
0.051576949656009674 -0.13259942829608917 0.9420000314712524 131 126 134
0.054740965366363525 -0.13274018466472626 0.9430000185966492 146 145 156
0.05809561535716057 -0.13330323994159698 0.9470000267028809 150 155 164
0.0613473542034626 -0.13358476758003235 0.9490000605583191 151 156 161
0.06468021869659424 -0.1340070515871048 0.9520000219345093 157 162 169
0.03728078678250313 -0.12993335723876953 0.9340000152587891 139 102 97
0.040490008890628815 -0.13035069406032562 0.937000036239624 157 131 127
0.04367251321673393 -0.13062892854213715 0.9390000700950623 152 140 138
0.04681839048862457 -0.1307680457830429 0.940000057220459 144 138 140
0.050023965537548065 -0.13104628026485443 0.9420000314712524 134 130 135
0.05335553362965584 -0.13160273432731628 0.9460000395774841 131 126 134
0.05653438717126846 -0.13174183666706085 0.9470000267028809 140 139 150
0.059656839817762375 -0.13174183666706085 0.9470000267028809 148 153 162
0.06311075389385223 -0.13243742287158966 0.9520000219345093 155 160 165
0.06624969094991684 -0.13243742287158966 0.9520000219345093 109 116 122
0.03890370577573776 -0.12866832315921783 0.9360000491142273 150 134 129
0.04203474894165993 -0.12880578637123108 0.937000036239624 146 136 136
0.045220546424388885 -0.12908072769641876 0.9390000700950623 143 137 141
0.048470985144376755 -0.1294931173324585 0.9420000314712524 139 135 140
0.05168645828962326 -0.12976804375648499 0.9440000653266907 132 126 132
0.05491511523723602 -0.13004298508167267 0.9460000395774841 140 134 140
0.05809561535716057 -0.1301804482936859 0.9470000267028809 143 142 146
0.0613473542034626 -0.1304553896188736 0.9490000605583191 152 152 156
0.06468021869659424 -0.13086777925491333 0.9520000219345093 144 154 159
0.03740053251385689 -0.12726087868213654 0.937000036239624 157 139 130
0.04057643935084343 -0.12753252685070038 0.9390000700950623 142 131 126
0.04381203651428223 -0.12793996930122375 0.9420000314712524 140 129 133
0.04696780815720558 -0.12807577848434448 0.9430000185966492 142 133 136
0.05013017728924751 -0.1282116025686264 0.9440000653266907 137 128 131
0.053524743765592575 -0.12889069318771362 0.9490000605583191 141 126 127
0.056653786450624466 -0.12889069318771362 0.9490000605583191 155 134 133
0.059845827519893646 -0.12902650237083435 0.9500000476837158 156 139 139
0.06317704916000366 -0.12943395972251892 0.9530000686645508 168 164 165
0.06645846366882324 -0.12970559298992157 0.9550000429153442 97 104 110
0.04070607200264931 -0.12638680636882782 0.9420000314712524 141 126 125
0.043858546763658524 -0.12652097642421722 0.9430000185966492 141 126 125
0.04701761528849602 -0.12665514647960663 0.9440000653266907 141 120 119
0.05023638531565666 -0.12692348659038544 0.9460000395774841 144 116 117
0.053524743765592575 -0.12732599675655365 0.9490000605583191 149 113 113
0.056653786450624466 -0.12732599675655365 0.9490000605583191 163 124 120
0.059845827519893646 -0.12746016681194305 0.9500000476837158 170 135 132
0.06317704916000366 -0.12786267697811127 0.9530000686645508 178 167 162
0.0901886522769928 -0.17388248443603516 1.2960000038146973 93 98 105
0.042259056121110916 -0.12483365088701248 0.9420000314712524 143 113 108
0.04541317746043205 -0.12496617436408997 0.9430000185966492 151 112 108
0.04867680370807648 -0.12536373734474182 0.9460000395774841 148 104 102
0.051850710064172745 -0.1254962682723999 0.9470000267028809 149 103 99
0.05508926138281822 -0.12576130032539368 0.9490000605583191 153 105 101
0.05827965587377548 -0.12589381635189056 0.9500000476837158 157 111 107
0.06154128536581993 -0.12615886330604553 0.9520000219345093 168 142 138
0.06474816799163818 -0.12629137933254242 0.9530000686645508 99 101 107
0.032871223986148834 -0.1230187639594078 0.940000057220459 150 114 106
0.042303916066884995 -0.12341137230396271 0.9430000185966492 145 99 91
0.04546133801341057 -0.12354224920272827 0.9440000653266907 150 103 92
0.04867680370807648 -0.1238039955496788 0.9460000395774841 150 100 93
0.051850710064172745 -0.12393485754728317 0.9470000267028809 148 95 91
0.05508926138281822 -0.1241966038942337 0.9490000605583191 147 94 90
0.05827965587377548 -0.12432748079299927 0.9500000476837158 160 107 103
0.06154128536581993 -0.1245892122387886 0.9520000219345093 166 129 124
0.06474816799163818 -0.12472008913755417 0.9530000686645508 102 96 100
0.039236221462488174 -0.1219857931137085 0.9440000653266907 146 94 83
0.04243849962949753 -0.12224424630403519 0.9460000395774841 147 94 81
0.045557651668787 -0.12224424630403519 0.9460000395774841 149 96 83
0.04872826114296913 -0.12237346172332764 0.9470000267028809 151 97 87
0.051850710064172745 -0.12237346172332764 0.9470000267028809 145 93 84
0.05514731630682945 -0.12276113033294678 0.9500000476837158 141 91 84
0.05827965587377548 -0.12276113033294678 0.9500000476837158 155 102 98
0.06154128536581993 -0.12301956862211227 0.9520000219345093 157 114 109
0.06474816799163818 -0.12314880639314651 0.9530000686645508 105 94 98
0.039236221462488174 -0.12042935937643051 0.9440000653266907 141 88 75
0.04243849962949753 -0.12068448960781097 0.9460000395774841 143 87 73
0.045557651668787 -0.12068448960781097 0.9460000395774841 146 90 76
0.04872826114296913 -0.1208120658993721 0.9470000267028809 148 95 82
0.051850710064172745 -0.1208120658993721 0.9470000267028809 140 88 77
0.05514731630682945 -0.12119478732347488 0.9500000476837158 138 89 79
0.05827965587377548 -0.12119478732347488 0.9500000476837158 152 99 95
0.06154128536581993 -0.12144993245601654 0.9520000219345093 152 109 104
0.06474816799163818 -0.12157750874757767 0.9530000686645508 96 84 84
0.03775976970791817 -0.11912474036216736 0.9460000395774841 139 88 74
0.04087892174720764 -0.11912474036216736 0.9460000395774841 135 82 69
0.04404458776116371 -0.11925067007541656 0.9470000267028809 141 85 71
0.047266650944948196 -0.11950252205133438 0.9490000605583191 145 89 75
0.05039569362998009 -0.11950252205133438 0.9490000605583191 141 88 75
0.05369394272565842 -0.11988028883934021 0.9520000219345093 138 87 73
0.056832876056432724 -0.11988028883934021 0.9520000219345093 141 92 82
0.06003481522202492 -0.12000621855258942 0.9530000686645508 155 102 98
0.06317704916000366 -0.12000621855258942 0.9530000686645508 179 141 134
0.03775976970791817 -0.11756499111652374 0.9460000395774841 132 84 69
0.04087892174720764 -0.11756499111652374 0.9460000395774841 129 78 64
0.04404458776116371 -0.11768927425146103 0.9470000267028809 134 81 66
0.047266650944948196 -0.117937833070755 0.9490000605583191 141 88 73
0.05039569362998009 -0.117937833070755 0.9490000605583191 140 87 72
0.053863149136304855 -0.11868347227573395 0.9550000429153442 136 85 71
0.057011980563402176 -0.11868347227573395 0.9550000429153442 140 91 81
0.0601608082652092 -0.11868347227573395 0.9550000429153442 151 103 99
0.06357480585575104 -0.1191805824637413 0.9590000510215759 173 146 140
0.03623845800757408 -0.1161278709769249 0.9470000267028809 131 85 69
0.03944403678178787 -0.11637312918901443 0.9490000605583191 123 75 60
0.04257308319211006 -0.11637312918901443 0.9490000605583191 124 73 59
0.04570212587714195 -0.11637312918901443 0.9490000605583191 134 81 66
0.048882629722356796 -0.1164957582950592 0.9500000476837158 140 87 72
0.052124474197626114 -0.11674100905656815 0.9520000219345093 134 85 73
0.05543756112456322 -0.11710889637470245 0.9550000429153442 131 85 79
0.05858638882637024 -0.11710889637470245 0.9550000429153442 139 107 103
0.0619938001036644 -0.11759939789772034 0.9590000510215759 169 153 150
0.06515581160783768 -0.11759939789772034 0.9590000510215759 152 131 138
0.03631499037146568 -0.11480843275785446 0.9490000605583191 128 82 66
0.03948559984564781 -0.11492940783500671 0.9500000476837158 121 75 59
0.04261794313788414 -0.11492940783500671 0.9500000476837158 121 70 56
0.04575028643012047 -0.11492940783500671 0.9500000476837158 133 80 65
0.04913990572094917 -0.11553430557250977 0.9550000429153442 139 88 72
0.05234348401427269 -0.11565528064966202 0.956000030040741 132 89 80
0.05561171472072601 -0.11589724570512772 0.9580000638961792 155 125 120
0.08608176559209824 -0.15327955782413483 1.2670000791549683 156 141 142
0.03475046902894974 -0.11324374377727509 0.9490000605583191 129 85 69
0.03787951543927193 -0.11324374377727509 0.9490000605583191 121 77 61
0.041051771491765976 -0.11336307227611542 0.9500000476837158 117 71 55
0.044184114784002304 -0.11336307227611542 0.9500000476837158 122 74 59
0.047416068613529205 -0.11360172182321548 0.9520000219345093 129 77 66
0.050714317709207535 -0.11395971477031708 0.9550000429153442 145 103 91
0.054032355546951294 -0.11431770771741867 0.9580000638961792 144 118 107
0.05719107389450073 -0.11431770771741867 0.9580000638961792 168 149 145
0.08379411697387695 -0.15083254873752594 1.2640000581741333 123 113 113
0.03318594768643379 -0.11167903989553452 0.9490000605583191 129 85 69
0.03635326027870178 -0.11179673671722412 0.9500000476837158 126 82 66
0.03956872597336769 -0.11203209310770035 0.9520000219345093 115 73 59
0.0427076630294323 -0.11203209310770035 0.9520000219345093 113 70 61
0.04589476436376572 -0.11214976757764816 0.9530000686645508 150 114 106
0.04919136315584183 -0.1125028058886528 0.956000030040741 194 170 158
0.052452992647886276 -0.11273817718029022 0.9580000638961792 173 153 143
0.05566976219415665 -0.11285585165023804 0.9590000510215759 160 140 132
0.08553823828697205 -0.14816008508205414 1.2590000629425049 95 86 93
0.033220916986465454 -0.11023038625717163 0.9500000476837158 128 86 72
0.036429792642593384 -0.11046244204044342 0.9520000219345093 130 90 77
0.03961029276251793 -0.11057848483324051 0.9530000686645508 130 96 86
0.042752526700496674 -0.11057848483324051 0.9530000686645508 164 137 129
0.04599107801914215 -0.1108105480670929 0.9550000429153442 175 153 145
0.049345724284648895 -0.11127467453479767 0.9590000510215759 184 162 152
0.05261724814772606 -0.11150673031806946 0.9610000252723694 192 166 155
0.055843912065029144 -0.11162277311086655 0.9620000720024109 158 124 116
0.08553823828697205 -0.146084263920784 1.2590000629425049 40 33 42
0.033220916986465454 -0.10866404324769974 0.9500000476837158 133 99 89
0.036429792642593384 -0.10889281332492828 0.9520000219345093 155 130 121
0.03961029276251793 -0.10900719463825226 0.9530000686645508 159 137 129
0.042752526700496674 -0.10900719463825226 0.9530000686645508 170 145 136
0.04599107801914215 -0.10923595726490021 0.9550000429153442 165 138 130
0.049345724284648895 -0.1096934899687767 0.9590000510215759 162 126 118
0.05261724814772606 -0.10992225259542465 0.9610000252723694 144 98 92
0.055843912065029144 -0.11003664135932922 0.9620000720024109 153 100 94
0.06110161542892456 -0.11392566561698914 0.9960000514984131 161 112 102
0.08009417355060577 -0.14172078669071198 1.2390000820159912 179 152 144
0.08417940884828568 -0.14172078669071198 1.2390000820159912 40 31 38
0.03329085186123848 -0.10732316225767136 0.9520000219345093 156 129 121
0.036544591188430786 -0.10766136646270752 0.9550000429153442 161 139 131
0.03969342261552811 -0.10766136646270752 0.9550000429153442 168 146 138
0.04288710653781891 -0.10777410119771957 0.956000030040741 170 133 128
0.0461355522274971 -0.10799957066774368 0.9580000638961792 139 96 91
0.049448639154434204 -0.10833777487277985 0.9610000252723694 146 96 91
0.052726756781339645 -0.10856324434280396 0.9630000591278076 147 92 87
0.05590195953845978 -0.10856324434280396 0.9630000591278076 151 93 89
0.06110161542892456 -0.11228348314762115 0.9960000514984131 162 105 98
0.06606637686491013 -0.11521457880735397 1.0220000743865967 182 144 135
0.08349999040365219 -0.13855060935020447 1.2290000915527344 46 35 43
0.031721387058496475 -0.10575351864099503 0.9520000219345093 163 132 123
0.03489693999290466 -0.10586461424827576 0.9530000686645508 162 128 120
0.03811900317668915 -0.10608677566051483 0.9550000429153442 165 133 127
0.041397470980882645 -0.10642004013061523 0.9580000638961792 134 98 90
0.04460270330309868 -0.10653112828731537 0.9590000510215759 138 90 84
0.04786433279514313 -0.10675329715013504 0.9610000252723694 142 89 83
0.051086049526929855 -0.10686438530683517 0.9620000720024109 142 87 82
0.05459636077284813 -0.10753089934587479 0.968000054359436 146 92 84
0.05868353322148323 -0.10919717699289322 0.9830000400543213 155 98 91
0.06312160193920135 -0.11130781471729279 1.002000093460083 166 109 102
0.08147386461496353 -0.1365242600440979 1.2290000915527344 148 106 94
0.03175470605492592 -0.1042933240532875 0.9530000686645508 137 101 91
0.034970175474882126 -0.10451219230890274 0.9550000429153442 142 99 92
0.03815891966223717 -0.10462163388729095 0.956000030040741 136 93 86
0.041397470980882645 -0.10484050214290619 0.9580000638961792 138 90 82
0.04460270330309868 -0.1049499437212944 0.9590000510215759 139 87 78
0.04786433279514313 -0.10516881942749023 0.9610000252723694 141 87 79
0.051086049526929855 -0.10527825355529785 0.9620000720024109 137 83 73
0.05459636077284813 -0.10593487322330475 0.968000054359436 142 88 78
0.05808654800057411 -0.10648205131292343 0.9730000495910645 150 96 88
0.06236565113067627 -0.1083424836397171 0.9900000691413879 160 103 96
0.08008171617984772 -0.1321997195482254 1.2080000638961792 175 130 119
0.031854670494794846 -0.10304539650678635 0.956000030040741 135 92 83
0.03508003056049347 -0.10326097160577774 0.9580000638961792 139 91 83
0.038238752633333206 -0.10326097160577774 0.9580000638961792 133 83 76
0.0414406843483448 -0.10336876660585403 0.9590000510215759 135 83 74
0.04474223032593727 -0.10369212925434113 0.9620000720024109 136 82 72
0.047963947057724 -0.10379991680383682 0.9630000591278076 137 83 73
0.05113914981484413 -0.10379991680383682 0.9630000591278076 137 80 71
0.054709166288375854 -0.1045544296503067 0.9700000286102295 139 85 75
0.05808654800057411 -0.10487779974937439 0.9730000495910645 146 94 85
0.06236565113067627 -0.10671018809080124 0.9900000691413879 156 103 97
0.030278604477643967 -0.10146915912628174 0.956000030040741 135 88 75
0.033430732786655426 -0.10146915912628174 0.956000030040741 136 87 77
0.03665938973426819 -0.10168144106864929 0.9580000638961792 132 80 71
0.039859674870967865 -0.10178758203983307 0.9590000510215759 128 74 64
0.0431114137172699 -0.10199985653162003 0.9610000252723694 133 80 65
0.046328186988830566 -0.1021059975028038 0.9620000720024109 135 79 67
0.049551550298929214 -0.10221213847398758 0.9630000591278076 137 81 69
0.05289100855588913 -0.10253055393695831 0.9660000205039978 133 79 69
0.05636635795235634 -0.1030612513422966 0.971000075340271 140 87 81
0.060917578637599945 -0.1053963154554367 0.9930000305175781 147 99 93
0.030373623594641685 -0.1002063900232315 0.9590000510215759 132 85 72
0.03353564068675041 -0.1002063900232315 0.9590000510215759 132 85 72
0.03677418828010559 -0.10041537135839462 0.9610000252723694 127 75 64
0.03998436778783798 -0.10051986575126648 0.9620000720024109 125 72 59
0.043156277388334274 -0.10051986575126648 0.9620000720024109 129 73 59
0.046376343816518784 -0.10062436014413834 0.9630000591278076 132 76 62
0.04970591515302658 -0.10093782097101212 0.9660000205039978 137 81 67
0.053000520914793015 -0.10114680975675583 0.968000054359436 132 80 69
0.05636635795235634 -0.1014602854847908 0.971000075340271 135 89 85
0.06054949387907982 -0.10313212871551514 0.987000048160553 148 113 110
0.028852660208940506 -0.09883089363574982 0.9610000252723694 131 85 69
0.0320545956492424 -0.09893374145030975 0.9620000720024109 131 85 69
0.035263124853372574 -0.09903658181428909 0.9630000591278076 129 83 67
0.038438327610492706 -0.09903658181428909 0.9630000591278076 122 73 61
0.041699957102537155 -0.09924226254224777 0.9650000333786011 125 72 59
0.044881757348775864 -0.09924226254224777 0.9650000333786011 126 73 58
0.04811336472630501 -0.09934510290622711 0.9660000205039978 134 81 66
0.0514046736061573 -0.09955079108476639 0.968000054359436 134 81 68
0.054878368973731995 -0.10006500035524368 0.9730000495910645 136 90 82
0.05892232432961464 -0.10150478035211563 0.987000048160553 171 141 136
0.028852660208940506 -0.09724641591310501 0.9610000252723694 130 83 70
0.0320545956492424 -0.09734760969877243 0.9620000720024109 128 83 70
0.035263124853372574 -0.09744880348443985 0.9630000591278076 127 83 67
0.038438327610492706 -0.09744880348443985 0.9630000591278076 121 75 59
0.041699957102537155 -0.09765118360519409 0.9650000333786011 124 73 59
0.044881757348775864 -0.09765118360519409 0.9650000333786011 126 73 60
0.04811336472630501 -0.09775237739086151 0.9660000205039978 135 82 69
0.0514046736061573 -0.09795477241277695 0.968000054359436 142 95 84
0.05476556718349457 -0.0982583537697792 0.971000075340271 182 152 145
0.05892232432961464 -0.09987743198871613 0.987000048160553 173 157 152
0.03050031140446663 -0.0958610251545906 0.9630000591278076 127 82 69
0.033745456486940384 -0.09606011211872101 0.9650000333786011 128 84 68
0.03692725673317909 -0.09606011211872101 0.9650000333786011 124 78 62
0.0401090569794178 -0.09606011211872101 0.9650000333786011 122 71 57
0.04333571717143059 -0.09615965187549591 0.9660000205039978 122 71 57
0.046520814299583435 -0.09615965187549591 0.9660000205039978 127 78 68
0.04980882629752159 -0.09635874629020691 0.968000054359436 138 106 100
0.053000520914793015 -0.09635874629020691 0.968000054359436 185 169 162
0.02741023153066635 -0.09456693381071091 0.9660000205039978 121 79 65
0.03059532679617405 -0.09456693381071091 0.9660000205039978 124 82 68
0.033780425786972046 -0.09456693381071091 0.9660000205039978 125 84 67
0.03696552291512489 -0.09456693381071091 0.9660000205039978 124 80 64
0.04015062004327774 -0.09456693381071091 0.9660000205039978 123 77 61
0.04333571717143059 -0.09456693381071091 0.9660000205039978 125 79 63
0.046520814299583435 -0.09456693381071091 0.9660000205039978 135 97 88
0.04980882629752159 -0.09476272761821747 0.968000054359436 174 156 147
0.053000520914793015 -0.09476272761821747 0.968000054359436 173 162 153
0.02741023153066635 -0.0929742082953453 0.9660000205039978 121 79 65
0.03059532679617405 -0.0929742082953453 0.9660000205039978 124 82 68
0.033780425786972046 -0.0929742082953453 0.9660000205039978 126 85 68
0.03696552291512489 -0.0929742082953453 0.9660000205039978 129 85 69
0.04015062004327774 -0.0929742082953453 0.9660000205039978 129 85 69
0.04333571717143059 -0.0929742082953453 0.9660000205039978 160 113 100
0.046520814299583435 -0.0929742082953453 0.9660000205039978 155 119 111
0.04980882629752159 -0.09316670149564743 0.968000054359436 177 162 152
0.053000520914793015 -0.09316670149564743 0.968000054359436 171 162 155
0.02752372995018959 -0.09175987541675568 0.9700000286102295 122 80 66
0.030722016468644142 -0.09175987541675568 0.9700000286102295 124 82 68
0.033920302987098694 -0.09175987541675568 0.9700000286102295 128 87 70
0.037118587642908096 -0.09175987541675568 0.9700000286102295 133 89 73
0.0403168760240078 -0.09175987541675568 0.9700000286102295 137 89 74
0.04342544078826904 -0.09157068282365799 0.968000054359436 154 102 91
0.04661713168025017 -0.09157068282365799 0.968000054359436 159 113 105
0.04980882629752159 -0.09157068282365799 0.968000054359436 172 152 142
0.02587113529443741 -0.08997466415166855 0.968000054359436 123 78 65
0.02912287227809429 -0.0901605561375618 0.9700000286102295 121 79 65
0.03232115879654884 -0.0901605561375618 0.9700000286102295 125 83 69
0.035519447177648544 -0.0901605561375618 0.9700000286102295 128 84 68
0.038717735558748245 -0.0901605561375618 0.9700000286102295 129 78 64
0.04208886995911598 -0.0905323475599289 0.9740000367164612 135 78 69
0.045160818845033646 -0.09025350958108902 0.971000075340271 147 88 79
0.04836240038275719 -0.09025350958108902 0.971000075340271 164 107 100
0.024400677531957626 -0.08883513510227203 0.9730000495910645 130 84 68
0.027608856558799744 -0.08883513510227203 0.9730000495910645 128 82 66
0.03081703372299671 -0.08883513510227203 0.9730000495910645 123 77 61
0.03402521461248398 -0.08883513510227203 0.9730000495910645 123 75 60
0.037156857550144196 -0.08865254372358322 0.971000075340271 128 72 60
0.040483132004737854 -0.08892644196748734 0.9740000367164612 131 72 63
0.04356002435088158 -0.08865254372358322 0.971000075340271 137 76 68
0.04676160588860512 -0.08865254372358322 0.971000075340271 145 86 79
0.019608542323112488 -0.08732052892446518 0.9740000367164612 123 75 58
0.022820016369223595 -0.08732052892446518 0.9740000367164612 129 81 66
0.026031494140625 -0.08732052892446518 0.9740000367164612 122 74 59
0.029242968186736107 -0.08732052892446518 0.9740000367164612 121 70 56
0.032454442232847214 -0.08732052892446518 0.9740000367164612 119 68 54
0.03577577322721481 -0.08758947998285294 0.9770000576972961 122 69 56
0.039076969027519226 -0.08776877820491791 0.9790000319480896 129 71 59
0.04243456944823265 -0.08803773671388626 0.9820000529289246 132 71 63
0.045532893389463425 -0.08776877820491791 0.9790000319480896 140 79 71
0.04836240038275719 -0.08705157786607742 0.971000075340271 155 96 89
0.013226205483078957 -0.08597861975431442 0.9770000576972961 107 61 43
0.01643073745071888 -0.08589062094688416 0.9760000705718994 115 67 50
0.019608542323112488 -0.08571461588144302 0.9740000367164612 118 70 53
0.022820016369223595 -0.08571461588144302 0.9740000367164612 122 74 57
0.026031494140625 -0.08571461588144302 0.9740000367164612 117 66 50
0.029242968186736107 -0.08571461588144302 0.9740000367164612 116 63 48
0.032454442232847214 -0.08571461588144302 0.9740000367164612 120 64 50
0.03577577322721481 -0.08597861975431442 0.9770000576972961 124 68 54
0.039076969027519226 -0.08615462481975555 0.9790000319480896 130 72 58
0.04243456944823265 -0.08641863614320755 0.9820000529289246 130 72 60
0.045532893389463425 -0.08615462481975555 0.9790000319480896 140 79 71
0.005183375906199217 -0.0845404639840126 0.9790000319480896 105 64 47
0.008411337621510029 -0.0845404639840126 0.9790000319480896 105 61 43
0.011639298871159554 -0.0845404639840126 0.9790000319480896 105 57 40
0.014867260120809078 -0.0845404639840126 0.9790000319480896 110 62 45
0.018058255314826965 -0.0843677669763565 0.9770000576972961 115 67 50
0.021279621869325638 -0.0843677669763565 0.9770000576972961 118 70 53
0.02457622066140175 -0.08462682366371155 0.9800000190734863 118 67 51
0.027807479724287987 -0.08462682366371155 0.9800000190734863 114 61 44
0.031038738787174225 -0.08462682366371155 0.9800000190734863 114 58 42
0.034269995987415314 -0.08462682366371155 0.9800000190734863 122 66 50
0.03822832182049751 -0.08626754581928253 0.999000072479248 130 72 56
0.04193786531686783 -0.0871310830116272 1.0090000629425049 132 74 60
0.045130159705877304 -0.08687201887369156 1.00600004196167 132 75 66
0.005183375906199217 -0.08292630314826965 0.9790000319480896 102 65 49
0.008411337621510029 -0.08292630314826965 0.9790000319480896 103 62 45
0.011639298871159554 -0.08292630314826965 0.9790000319480896 104 58 40
0.015034308657050133 -0.08385806530714035 0.9900000691413879 109 61 44
0.01826157048344612 -0.0836886540055275 0.9880000352859497 113 65 48
0.02158454991877079 -0.08394277095794678 0.9910000562667847 119 68 52
0.02512793429195881 -0.08487453311681747 1.002000093460083 118 67 49
0.02863035537302494 -0.08546746522188187 1.0090000629425049 113 60 43
0.03202057629823685 -0.08563687652349472 1.0110000371932983 114 58 42
0.035563863813877106 -0.08614510297775269 1.0170000791549683 122 66 50
0.039567653089761734 -0.08758509159088135 1.034000039100647 129 73 57
0.04347572103142738 -0.08860155194997787 1.0460000038146973 131 75 59
0.04782181978225708 -0.09029565751552582 1.0660001039505005 132 85 74
0.011805743910372257 -0.08247493952512741 0.9930000305175781 102 58 42
0.015034308657050133 -0.08222577720880508 0.9900000691413879 108 60 45
0.01826157048344612 -0.08205965161323547 0.9880000352859497 112 64 47
0.02158454991877079 -0.082308828830719 0.9910000562667847 117 69 52
0.02512793429195881 -0.08322244882583618 1.002000093460083 116 68 49
0.02863035537302494 -0.08380384743213654 1.0090000629425049 113 62 44
0.03202057629823685 -0.08396995067596436 1.0110000371932983 111 60 42
0.035563863813877106 -0.0844682976603508 1.0170000791549683 121 68 51
0.039567653089761734 -0.08588024973869324 1.034000039100647 130 77 60
0.04347572103142738 -0.08687692135572433 1.0460000038146973 129 83 67
0.013727094978094101 -0.08254725486040115 1.0140000581741333 98 58 43
0.017070457339286804 -0.08254725486040115 1.0140000581741333 108 64 48
0.02057487703859806 -0.08319851756095886 1.0220000743865967 114 68 52
0.024061763659119606 -0.08360555768013 1.027000069618225 116 70 54
0.02763507515192032 -0.08417540788650513 1.034000039100647 115 69 51
0.031584806740283966 -0.08564074337482452 1.0520000457763672 110 64 46
0.03512010723352432 -0.0858035534620285 1.0540000200271606 115 67 50
0.0389249213039875 -0.0865362286567688 1.0630000829696655 125 77 60
0.04306848719716072 -0.08783874660730362 1.0789999961853027 134 90 74
0.015398777090013027 -0.08087538927793503 1.0140000581741333 103 66 50
0.01879759132862091 -0.08111467212438583 1.0170000791549683 110 70 55
0.022259747609496117 -0.08151346445083618 1.0220000743865967 118 76 62
0.04549897089600563 -0.09483317285776138 1.1890000104904175 75 43 37
0.01591510698199272 -0.08185926824808121 1.0480000972747803 72 45 37
0.02904006838798523 -0.09045137465000153 1.158000111579895 62 31 22
0.03260285407304764 -0.08974837511777878 1.1490000486373901 61 34 26
0.03626465052366257 -0.08943594247102737 1.1450001001358032 52 26 22
0.039690256118774414 -0.08865483850240707 1.1350001096725464 49 26 21
